<?xml version="1.0" standalone="no"?>
<!DOCTYPE svg PUBLIC "-//W3C//DTD SVG 20010904//EN"
 "http://www.w3.org/TR/2001/REC-SVG-20010904/DTD/svg10.dtd">
<svg version="1.0" xmlns="http://www.w3.org/2000/svg"
 width="1280.000000pt" height="1280.000000pt" viewBox="0 0 1280.000000 1280.000000"
 preserveAspectRatio="xMidYMid meet">

<g transform="translate(0.000000,1280.000000) scale(0.100000,-0.100000)"
fill="#000000" stroke="none">
<path d="M6033 11063 c-50 -38 -101 -75 -113 -83 -12 -8 -70 -51 -129 -95 -60
-44 -118 -87 -131 -95 -12 -8 -36 -27 -54 -42 -17 -15 -37 -28 -43 -28 -7 0
-13 -3 -13 -7 0 -5 -24 -24 -52 -43 -54 -36 -130 -90 -160 -115 -9 -8 -39 -29
-65 -47 -26 -18 -85 -61 -130 -96 -45 -34 -87 -62 -93 -62 -7 0 -10 -6 -7 -13
3 -8 -3 -14 -16 -14 -11 -1 -23 -6 -26 -10 -10 -13 -417 -313 -425 -313 -3 0
-20 -13 -38 -30 -18 -16 -38 -30 -45 -30 -7 0 -13 -4 -13 -8 0 -4 -12 -15 -27
-24 -16 -9 -39 -26 -53 -37 -14 -12 -79 -61 -146 -109 -66 -48 -150 -109 -187
-136 l-67 -48 0 -140 0 -140 97 3 98 3 -4 -77 -3 -77 1946 0 1946 0 0 75 0 75
73 0 c125 0 117 -9 117 146 l0 134 -86 62 c-48 35 -92 68 -98 74 -6 6 -43 32
-81 59 -39 27 -74 54 -78 62 -4 7 -13 13 -18 13 -9 0 -46 25 -94 63 -46 36
-209 155 -247 180 -27 18 -48 35 -48 39 0 5 -5 8 -10 8 -6 0 -16 5 -23 10 -35
29 -98 76 -145 108 -30 19 -56 41 -59 48 -2 7 -14 15 -26 18 -12 3 -40 21 -62
41 -22 19 -43 35 -47 35 -4 0 -13 6 -20 13 -7 7 -26 21 -43 31 -16 11 -34 25
-38 33 -4 7 -13 13 -18 13 -6 0 -36 19 -67 43 -32 24 -84 63 -117 87 -33 24
-76 55 -95 69 -19 15 -52 38 -72 51 -21 14 -38 28 -38 33 0 4 -5 7 -11 7 -6 0
-17 7 -26 16 -9 8 -22 13 -30 10 -8 -3 -12 -2 -8 3 5 9 -34 43 -114 96 -24 16
-45 35 -48 42 -3 7 -10 13 -17 13 -6 0 -62 38 -124 85 -62 47 -118 85 -125 85
-6 0 -53 -30 -104 -67z m-1024 -776 c-2 -1 -13 -9 -24 -17 -19 -14 -19 -14 -6
3 7 9 18 17 24 17 6 0 8 -1 6 -3z m3148 -963 c-3 -3 -12 -4 -19 -1 -8 3 -5 6
6 6 11 1 17 -2 13 -5z m-3684 -141 c-7 -2 -21 -2 -30 0 -10 3 -4 5 12 5 17 0
24 -2 18 -5z m674 1 c-3 -3 -12 -4 -19 -1 -8 3 -5 6 6 6 11 1 17 -2 13 -5z
m476 -1 c-79 -2 -207 -2 -285 0 -79 1 -15 3 142 3 157 0 221 -2 143 -3z m1410
0 c-100 -2 -266 -2 -370 0 -103 1 -21 2 182 2 204 0 288 -1 188 -2z m-2730
-20 c-13 -2 -33 -2 -45 0 -13 2 -3 4 22 4 25 0 35 -2 23 -4z m780 0 c-24 -2
-62 -2 -85 0 -24 2 -5 4 42 4 47 0 66 -2 43 -4z m805 0 c-10 -2 -26 -2 -35 0
-10 3 -2 5 17 5 19 0 27 -2 18 -5z m575 0 c-13 -2 -33 -2 -45 0 -13 2 -3 4 22
4 25 0 35 -2 23 -4z m880 0 c-13 -2 -33 -2 -45 0 -13 2 -3 4 22 4 25 0 35 -2
23 -4z m560 0 c-13 -2 -33 -2 -45 0 -13 2 -3 4 22 4 25 0 35 -2 23 -4z"/>
<path d="M3560 10177 c-55 -33 -166 -155 -200 -218 -49 -93 -69 -210 -50 -298
6 -31 19 -81 29 -111 17 -55 17 -56 -11 -155 -15 -55 -32 -114 -38 -131 -5
-17 -10 -39 -10 -50 0 -16 -2 -17 -10 -4 -5 8 -10 28 -10 44 0 46 -22 109 -32
94 -6 -9 -8 -7 -4 7 9 35 -67 166 -94 162 -8 -1 -14 5 -13 13 3 18 -87 85
-172 129 l-60 31 -12 -52 c-26 -114 -10 -250 44 -355 32 -63 100 -146 114
-137 5 3 8 1 7 -5 -4 -14 96 -88 155 -113 l49 -21 -6 -71 c-11 -111 -15 -117
-40 -55 -12 30 -27 53 -34 52 -6 -2 -9 3 -6 10 6 16 -78 104 -137 144 -59 40
-187 98 -197 89 -15 -16 -7 -229 11 -280 33 -90 74 -163 118 -205 62 -58 168
-127 217 -140 23 -7 44 -16 47 -21 5 -8 9 -124 6 -154 -1 -6 -14 10 -29 35
-24 36 -84 97 -139 139 -21 16 -138 69 -161 73 -12 2 -25 6 -28 10 -4 4 -22 7
-39 7 l-32 0 5 -77 c2 -43 8 -86 13 -95 5 -9 9 -24 9 -33 0 -34 69 -162 113
-211 42 -46 154 -124 178 -124 5 0 9 -4 9 -8 0 -5 36 -17 80 -28 63 -15 80
-23 80 -36 0 -10 5 -18 12 -18 6 0 9 -3 5 -6 -3 -3 1 -29 10 -57 8 -28 16 -58
19 -66 2 -9 6 -26 10 -38 8 -29 0 -29 -29 -2 -45 42 -104 76 -162 94 -33 9
-71 21 -85 26 -14 4 -61 11 -104 15 l-79 7 6 -42 c10 -74 92 -227 156 -290 60
-58 86 -81 95 -81 3 0 29 -11 58 -24 60 -28 147 -46 225 -46 50 0 54 -2 76
-37 32 -53 49 -95 41 -102 -4 -3 -9 0 -11 7 -3 6 -10 12 -17 12 -7 0 -27 7
-43 15 -49 25 -178 38 -268 29 l-80 -9 1 -31 c3 -59 125 -215 220 -281 35 -24
104 -55 104 -46 0 3 6 1 13 -5 6 -6 50 -16 96 -22 66 -10 98 -10 153 0 l70 12
76 -76 c84 -83 139 -126 159 -126 22 0 14 36 -11 48 -24 11 -186 160 -186 171
0 3 22 21 50 40 119 81 211 218 230 345 12 73 -2 251 -21 270 -5 6 -9 17 -9
26 0 9 -6 24 -13 34 -13 18 -15 17 -53 -6 -44 -28 -134 -118 -169 -170 -68
-100 -91 -206 -75 -348 6 -50 17 -101 25 -114 8 -12 12 -25 9 -28 -7 -8 -33
18 -58 57 -10 17 -36 53 -57 80 -20 28 -62 92 -92 143 -29 50 -56 90 -59 87
-2 -3 -3 8 0 24 2 19 9 28 17 25 7 -3 38 11 68 30 31 20 59 36 63 36 12 0 116
105 144 146 49 69 74 165 74 279 1 133 -6 171 -30 167 -41 -7 -149 -77 -213
-138 -106 -100 -159 -229 -160 -392 -1 -59 -14 -61 -31 -4 -6 20 -15 46 -20
57 -4 11 -11 28 -14 38 -3 11 -11 15 -17 11 -8 -4 -9 -3 -5 4 6 10 -18 112
-32 136 -3 5 -6 24 -8 42 -2 18 -8 42 -13 53 -6 11 -11 31 -11 44 0 23 5 26
53 32 65 9 117 29 186 73 135 86 210 214 241 412 5 36 10 68 10 73 0 11 -58 9
-65 -3 -3 -5 -15 -10 -25 -10 -20 0 -136 -45 -185 -72 -31 -18 -96 -76 -130
-118 -19 -24 -75 -132 -75 -145 0 -4 -7 -32 -16 -63 -21 -73 -31 -54 -40 74
-3 54 -9 130 -13 168 -5 45 -4 69 3 71 6 2 53 11 105 21 56 10 121 30 162 50
72 35 155 106 144 124 -3 5 0 8 7 5 26 -10 124 204 130 282 l3 38 -65 -2 c-36
-1 -83 -8 -105 -14 -63 -18 -146 -60 -140 -70 4 -5 -2 -6 -11 -2 -13 5 -15 3
-9 -7 5 -9 4 -11 -3 -6 -18 11 -37 -4 -21 -16 11 -8 10 -9 -4 -4 -20 6 -83
-56 -117 -114 -31 -54 -70 -141 -70 -156 0 -8 -10 -14 -22 -14 -14 0 -18 3
-12 8 7 4 17 68 24 162 16 214 7 194 87 198 256 11 433 153 502 401 l20 71
-57 0 c-78 0 -244 -43 -299 -77 -25 -15 -53 -32 -62 -37 -17 -9 -71 -77 -108
-136 -21 -33 -22 -34 -23 -10 0 14 13 77 29 140 24 93 34 119 56 135 101 78
169 162 210 260 26 62 30 82 29 170 0 74 -6 122 -23 183 -13 45 -26 84 -30 86
-4 3 -22 -5 -41 -17z m61 -264 c-12 -20 -14 -14 -5 12 4 9 9 14 11 11 3 -2 0
-13 -6 -23z m16 -75 c-3 -8 -6 -5 -6 6 -1 11 2 17 5 13 3 -3 4 -12 1 -19z
m120 -384 c-3 -3 -12 -4 -19 -1 -8 3 -5 6 6 6 11 1 17 -2 13 -5z m-242 -84
c-3 -5 -12 -10 -18 -10 -7 0 -6 4 3 10 19 12 23 12 15 0z m-128 -346 c-3 -3
-12 -4 -19 -1 -8 3 -5 6 6 6 11 1 17 -2 13 -5z m192 -388 c-2 -2 -15 -9 -29
-15 -24 -11 -24 -11 -6 3 16 13 49 24 35 12z m214 -33 c-7 -2 -19 -2 -25 0 -7
3 -2 5 12 5 14 0 19 -2 13 -5z m64 -625 c-3 -8 -6 -5 -6 6 -1 11 2 17 5 13 3
-3 4 -12 1 -19z m-67 -248 c0 -5 -5 -10 -11 -10 -5 0 -7 5 -4 10 3 6 8 10 11
10 2 0 4 -4 4 -10z m-643 -356 c-3 -3 -12 -4 -19 -1 -8 3 -5 6 6 6 11 1 17 -2
13 -5z m875 -76 c-7 -7 -12 -8 -12 -2 0 14 12 26 19 19 2 -3 -1 -11 -7 -17z"/>
<path d="M8572 10177 c-46 -91 -61 -300 -28 -397 32 -96 113 -200 222 -285 20
-16 32 -45 58 -145 18 -69 30 -132 28 -139 -2 -7 -20 11 -39 41 -41 61 -93
117 -109 118 -6 0 -17 6 -23 13 -32 39 -164 82 -283 93 -95 9 -99 6 -84 -53 7
-27 29 -81 49 -121 35 -73 114 -181 131 -182 5 0 23 -11 40 -23 66 -50 174
-84 288 -89 38 -2 69 -5 69 -8 4 -13 8 -56 19 -195 7 -82 14 -153 17 -157 2
-5 -2 -8 -10 -8 -8 0 -18 12 -21 28 -14 56 -71 155 -124 213 -41 45 -73 69
-136 99 -45 22 -89 40 -97 40 -8 0 -19 4 -25 9 -15 14 -151 25 -158 12 -8 -13
27 -148 52 -201 55 -118 126 -192 235 -246 70 -34 215 -70 247 -61 32 8 32 -6
11 -183 -7 -52 -15 -117 -19 -145 l-8 -50 -12 40 c-7 22 -12 45 -12 50 0 6
-13 38 -28 72 -36 80 -93 150 -160 199 -67 49 -199 101 -272 107 -23 2 -24 -1
-22 -43 6 -86 33 -191 65 -252 32 -61 111 -150 157 -178 77 -45 134 -69 186
-81 95 -20 94 7 4 -286 -11 -35 -28 -82 -39 -105 -10 -24 -23 -52 -27 -63 -6
-15 -9 -10 -11 25 -3 59 -23 180 -33 205 -31 77 -67 137 -109 183 -27 28 -52
52 -55 52 -5 0 -97 60 -106 70 -3 3 -24 13 -47 22 l-42 16 -8 -36 c-14 -65 -8
-233 10 -292 22 -69 80 -164 125 -204 20 -17 40 -36 46 -42 9 -8 70 -46 165
-102 11 -6 6 -22 -22 -77 -51 -98 -67 -124 -108 -175 -20 -25 -53 -72 -73
-104 -21 -31 -40 -55 -43 -52 -3 3 2 31 10 63 21 75 23 221 3 295 -24 88 -81
177 -155 243 -19 16 -39 35 -45 40 -14 13 -64 45 -70 45 -23 0 -66 -174 -66
-267 0 -80 12 -126 60 -227 25 -51 145 -180 198 -212 18 -10 32 -21 32 -24 0
-3 -20 -26 -45 -50 -24 -24 -41 -48 -38 -53 3 -6 1 -7 -5 -3 -6 4 -28 -8 -48
-26 -20 -18 -43 -37 -52 -43 -20 -12 -28 -45 -11 -45 28 0 152 107 142 123 -3
6 -1 7 6 3 7 -5 27 9 50 34 l39 43 78 -12 c101 -14 230 5 312 46 70 35 152
110 202 184 40 58 76 136 68 144 -3 3 -27 9 -53 14 -86 16 -272 -1 -310 -29
-5 -4 -25 -12 -43 -18 l-32 -11 25 45 c53 94 52 94 111 94 50 0 141 14 174 27
8 4 17 7 20 8 62 17 147 72 198 130 65 74 161 290 138 312 -11 11 -179 -13
-256 -38 -76 -24 -84 -28 -152 -88 -21 -19 -41 -31 -44 -28 -4 3 5 43 20 89
14 46 27 94 28 107 3 22 12 27 75 43 156 39 283 135 349 264 35 67 45 100 58
193 9 61 14 116 11 120 -8 14 -95 -11 -192 -55 -28 -13 -57 -24 -62 -24 -6 0
-11 -4 -11 -8 0 -5 -18 -21 -40 -38 -22 -16 -58 -55 -81 -87 -23 -32 -42 -57
-43 -55 -2 2 -1 38 2 81 4 80 11 92 59 100 61 9 236 146 269 209 17 33 18 41
2 32 -7 -4 -8 -3 -4 4 4 6 13 9 20 6 9 -3 17 11 26 43 7 26 17 53 22 59 11 15
23 214 14 248 -5 22 -11 26 -29 21 -78 -24 -234 -121 -282 -177 -11 -13 -36
-54 -57 -93 -40 -76 -48 -75 -53 12 -1 26 -4 57 -6 67 -3 16 7 24 46 40 28 12
52 23 55 27 3 3 26 19 51 37 165 112 247 303 218 509 -6 43 -13 81 -16 86 -8
13 -150 -71 -203 -120 -19 -18 -38 -33 -41 -33 -4 0 -25 -28 -47 -62 -39 -62
-74 -154 -87 -233 -8 -46 -19 -33 -29 35 -4 25 -11 59 -16 75 -48 148 -48 145
-29 199 54 159 48 285 -19 411 -42 77 -146 190 -209 227 -29 17 -30 17 -41 -5z
m725 -679 c-2 -13 -4 -5 -4 17 -1 22 1 32 4 23 2 -10 2 -28 0 -40z m-870 -44
c-3 -3 -12 -4 -19 -1 -8 3 -5 6 6 6 11 1 17 -2 13 -5z m416 -84 c3 -11 1 -18
-4 -14 -5 3 -9 12 -9 20 0 20 7 17 13 -6z m104 -92 c-3 -8 -6 -5 -6 6 -1 11 2
17 5 13 3 -3 4 -12 1 -19z m283 -22 c0 -3 -4 -8 -10 -11 -5 -3 -10 -1 -10 4 0
6 5 11 10 11 6 0 10 -2 10 -4z m-313 -988 c-3 -8 -6 -5 -6 6 -1 11 2 17 5 13
3 -3 4 -12 1 -19z m-30 -204 c-3 -3 -12 -4 -19 -1 -8 3 -5 6 6 6 11 1 17 -2
13 -5z m-207 -584 c0 -5 -5 -10 -11 -10 -5 0 -7 5 -4 10 3 6 8 10 11 10 2 0 4
-4 4 -10z m-263 -197 c-2 -16 -4 -5 -4 22 0 28 2 40 4 28 2 -13 2 -35 0 -50z"/>
<path d="M4668 9072 l-298 -2 0 -49 c0 -69 7 -81 44 -81 l31 0 -2 -852 -2
-853 -36 -3 -35 -3 0 -65 0 -64 309 0 c338 0 321 -3 321 58 0 53 -11 71 -41
74 l-30 3 -2 852 c-2 892 -3 872 39 856 24 -9 34 16 32 74 -1 38 -6 52 -17 55
-9 2 -150 2 -313 0z"/>
<path d="M6127 9072 l-298 -2 3 -63 c3 -58 5 -62 28 -64 55 -3 65 -5 52 -10
-10 -4 -12 -179 -12 -851 l1 -847 -36 -3 -35 -3 0 -65 0 -64 310 0 310 0 1 48
c0 26 2 55 4 66 3 15 -2 17 -31 14 l-34 -4 -2 843 c-1 464 -2 851 -2 860 -1
13 7 17 31 17 l31 -1 4 63 c2 50 0 64 -12 66 -8 2 -149 2 -313 0z"/>
<path d="M7300 9071 c-23 -3 -24 -4 -5 -12 14 -5 15 -8 5 -8 -13 -1 -15 -11
-10 -53 3 -32 10 -54 18 -54 6 -1 21 -2 32 -3 20 -1 20 -6 18 -853 l-3 -853
-32 -3 c-31 -3 -31 -3 -35 -68 l-3 -64 311 0 311 0 2 65 c2 64 1 65 -23 65
-15 0 -26 -6 -26 -12 0 -9 -4 -8 -10 2 -6 9 -10 333 -10 865 0 532 4 856 10
865 6 10 10 11 10 3 0 -8 9 -11 23 -9 20 3 22 9 22 65 l0 61 -290 3 c-159 1
-301 0 -315 -2z"/>
<path d="M4127 7023 c-4 -3 -7 -55 -7 -115 l0 -108 1980 0 1980 0 0 115 0 115
-1973 0 c-1086 0 -1977 -3 -1980 -7z"/>
<path d="M3920 6680 l0 -110 2175 0 2175 0 0 110 0 110 -2175 0 -2175 0 0
-110z"/>
<path d="M5410 5692 c0 -273 -1 -281 -21 -295 -27 -19 -17 -24 56 -25 l60 -1
-27 20 -28 21 0 214 c0 123 4 214 9 214 5 0 11 -4 13 -9 2 -5 64 -73 138 -152
74 -79 171 -182 215 -229 l80 -85 5 282 c3 168 9 286 15 292 6 5 19 11 30 14
11 3 -20 5 -70 5 -49 0 -81 -3 -70 -5 11 -3 28 -12 38 -21 15 -13 17 -38 17
-231 l-1 -216 -56 60 c-31 33 -111 118 -177 189 -67 71 -145 154 -173 184
l-53 56 0 -282z"/>
<path d="M6190 5960 c-85 -3 -148 -7 -139 -8 9 -1 23 -10 32 -20 15 -16 17
-49 17 -255 0 -237 -6 -287 -37 -287 -7 0 -13 -4 -13 -8 0 -14 318 -12 328 2
12 15 45 116 40 121 -2 3 -10 -10 -16 -28 -19 -53 -73 -77 -171 -77 l-81 0 0
125 0 125 84 0 c83 0 85 0 94 -27 9 -23 10 -16 10 42 0 44 -3 61 -7 45 -7 -24
-11 -25 -94 -28 l-88 -3 3 123 3 123 80 3 c98 4 119 -1 133 -30 9 -20 11 -17
11 25 1 39 -2 47 -16 45 -10 -1 -88 -5 -173 -8z"/>
<path d="M6665 5946 c-67 -28 -116 -76 -149 -146 -16 -35 -21 -64 -21 -135 0
-83 3 -95 33 -151 41 -75 97 -118 183 -140 107 -27 209 0 275 73 34 37 45 71
43 137 l-1 41 -9 -43 c-35 -178 -241 -253 -377 -136 -59 50 -85 120 -85 224 0
95 14 137 63 199 78 96 259 100 336 6 18 -23 34 -48 34 -55 0 -7 3 -11 6 -7 3
3 3 28 -1 55 -6 49 -8 51 -58 73 -35 15 -78 24 -132 26 -68 3 -89 0 -140 -21z"/>
<path d="M3643 4727 c-82 -31 -119 -162 -70 -257 31 -62 66 -84 130 -84 103 0
152 56 152 174 0 140 -91 212 -212 167z m141 -28 c40 -32 56 -71 56 -140 0
-100 -51 -159 -136 -159 -78 0 -134 68 -134 163 0 51 30 119 61 141 35 24 119
21 153 -5z"/>
<path d="M4050 4722 c-70 -34 -102 -160 -65 -249 23 -55 42 -71 99 -83 71 -16
121 3 161 59 25 36 29 50 29 109 0 52 -5 76 -24 109 -38 68 -126 92 -200 55z
m158 -27 c53 -45 66 -166 25 -235 -44 -75 -154 -80 -218 -10 -17 19 -20 36
-20 112 l0 89 37 35 c33 30 44 34 92 34 44 0 60 -5 84 -25z"/>
<path d="M5326 4730 c-65 -20 -101 -92 -94 -189 8 -116 87 -178 191 -150 66
17 97 54 111 132 9 47 -9 138 -32 165 -40 46 -108 62 -176 42z m132 -26 c60
-42 81 -162 41 -234 -38 -68 -120 -91 -185 -51 -84 51 -88 233 -6 284 35 21
120 22 150 1z"/>
<path d="M6435 4728 c-104 -34 -124 -242 -30 -316 54 -43 155 -35 194 15 l21
26 0 -37 c0 -22 4 -35 10 -31 6 3 10 44 10 91 l0 84 -70 0 c-40 0 -70 -4 -70
-10 0 -6 27 -10 60 -10 58 0 60 -1 60 -26 0 -116 -173 -156 -234 -53 -39 67
-28 179 24 231 53 52 175 32 195 -32 7 -22 25 -27 25 -7 -1 19 -33 53 -68 71
-34 18 -81 19 -127 4z"/>
<path d="M3170 4561 l0 -169 59 -4 c100 -5 140 4 177 44 53 58 57 177 8 247
-25 36 -74 51 -164 51 l-80 0 0 -169z m206 128 c39 -36 54 -72 54 -129 0 -60
-17 -97 -60 -134 -28 -23 -40 -26 -106 -26 l-74 0 0 161 0 162 80 -5 c67 -4
84 -9 106 -29z"/>
<path d="M4400 4553 c1 -130 3 -173 11 -160 6 10 9 42 6 70 -5 70 -2 77 41 77
33 0 40 -6 72 -53 47 -71 77 -107 83 -100 3 2 -17 36 -44 74 -27 38 -49 71
-49 73 0 2 12 6 28 9 58 12 87 62 70 124 -12 46 -50 63 -143 63 l-75 0 0 -177z
m186 134 c30 -35 31 -69 2 -101 -18 -21 -35 -27 -83 -31 -33 -3 -65 -2 -71 2
-7 5 -15 43 -19 87 l-8 78 78 -4 c70 -3 79 -6 101 -31z"/>
<path d="M4937 4723 l63 -4 3 -172 3 -172 2 172 2 172 58 4 c31 2 1 3 -68 3
-69 0 -97 -1 -63 -3z"/>
<path d="M5820 4561 c0 -103 4 -172 10 -176 6 -4 10 25 10 79 l0 86 105 0 105
0 0 -80 c0 -47 4 -80 10 -80 6 0 10 63 10 170 0 107 -4 170 -10 170 -6 0 -10
-33 -10 -80 l0 -80 -105 0 -105 0 0 80 c0 47 -4 80 -10 80 -6 0 -10 -63 -10
-169z"/>
<path d="M6200 4560 c0 -107 4 -170 10 -170 6 0 10 63 10 170 0 107 -4 170
-10 170 -6 0 -10 -63 -10 -170z"/>
<path d="M6760 4560 c0 -107 4 -170 10 -170 6 0 10 33 10 80 l0 80 105 0 105
0 0 -80 c0 -47 4 -80 10 -80 6 0 10 63 10 170 0 107 -4 170 -10 170 -6 0 -10
-33 -10 -80 l0 -80 -105 0 -105 0 0 80 c0 47 -4 80 -10 80 -6 0 -10 -63 -10
-170z"/>
<path d="M7142 4559 l3 -171 93 0 c52 0 96 3 99 6 4 3 -35 6 -85 6 l-92 0 0
80 0 79 88 4 87 3 -87 2 -88 2 0 75 0 74 93 4 92 3 -103 2 -102 2 2 -171z"/>
<path d="M7470 4560 c0 -107 4 -170 10 -170 6 0 10 32 10 75 l0 75 38 0 c36 0
41 -4 91 -75 28 -41 57 -75 62 -75 12 0 -15 48 -53 92 -36 42 -35 53 5 64 23
7 37 20 51 47 16 34 17 42 4 75 -18 49 -48 62 -140 62 l-78 0 0 -170z m159
149 c37 -13 51 -35 51 -83 0 -46 -28 -65 -104 -70 -85 -7 -86 -6 -86 85 l0 79
54 0 c29 0 67 -5 85 -11z"/>
<path d="M7980 4560 l0 -170 98 2 97 2 -87 3 -88 4 0 164 c0 103 -4 165 -10
165 -6 0 -10 -63 -10 -170z"/>
<path d="M8290 4561 c0 -94 3 -171 8 -173 4 -2 48 0 97 3 l90 5 -92 2 -93 2 0
80 0 79 88 4 87 3 -87 2 -88 2 0 75 0 74 93 4 92 3 -97 2 -98 2 0 -169z"/>
<path d="M8601 4678 c12 -29 26 -66 31 -83 6 -16 26 -72 45 -122 42 -113 54
-112 96 4 16 43 43 116 61 163 18 47 32 87 29 89 -9 11 -25 -22 -62 -124 -21
-61 -47 -132 -58 -158 l-19 -48 -41 108 c-23 59 -50 133 -61 163 -11 30 -25
56 -31 58 -7 2 -3 -18 10 -50z"/>
<path d="M8962 4561 c-1 -123 2 -170 11 -173 7 -1 55 0 107 3 l95 5 -97 2 -98
2 0 80 0 79 88 4 87 3 -87 2 -88 2 0 75 0 74 98 4 97 3 -106 2 -107 2 0 -169z"/>
<path d="M9305 4561 l0 -174 88 1 c49 0 91 3 94 6 4 3 -35 6 -85 6 l-92 0 -3
168 -3 167 1 -174z"/>
</g>
</svg>
