<svg id="svg" version="1.1" xmlns="http://www.w3.org/2000/svg" xmlns:xlink="http://www.w3.org/1999/xlink" width="400" height="400" viewBox="0, 0, 400,400"><g id="svgg"><path id="path0" d="M190.235 53.047 C 189.629 53.520,188.325 54.469,187.338 55.156 C 186.350 55.844,185.319 56.652,185.045 56.953 C 184.772 57.254,184.424 57.500,184.272 57.500 C 184.120 57.500,183.314 58.027,182.481 58.672 C 181.649 59.316,180.184 60.406,179.226 61.094 C 176.764 62.861,173.976 64.923,173.511 65.321 C 173.293 65.507,172.168 66.304,171.011 67.093 C 169.853 67.882,168.537 68.824,168.086 69.186 C 167.635 69.548,166.928 70.086,166.514 70.383 C 161.396 74.052,157.877 76.638,157.474 77.025 C 157.202 77.286,156.827 77.500,156.640 77.500 C 156.454 77.500,156.255 77.610,156.198 77.744 C 156.045 78.101,143.174 87.500,142.838 87.500 C 142.681 87.500,142.505 87.617,142.448 87.761 C 142.356 87.991,138.540 90.952,136.759 92.176 C 136.393 92.427,133.793 94.301,130.980 96.340 C 128.168 98.378,125.672 100.122,125.433 100.213 C 125.092 100.344,125.000 101.333,125.000 104.896 L 125.000 109.413 127.821 109.351 C 131.205 109.276,131.055 109.155,130.967 111.873 L 130.896 114.063 191.650 114.063 L 252.405 114.063 252.471 111.804 C 252.552 109.046,252.261 109.288,255.542 109.250 L 258.281 109.219 258.368 104.927 L 258.455 100.635 255.868 98.733 C 254.445 97.686,252.804 96.454,252.220 95.993 C 251.637 95.533,250.999 95.086,250.802 95.000 C 250.481 94.860,248.584 93.476,247.590 92.656 C 247.381 92.484,246.467 91.809,245.558 91.156 C 244.650 90.502,242.303 88.780,240.343 87.328 C 238.383 85.876,236.694 84.688,236.589 84.688 C 236.485 84.688,236.041 84.355,235.602 83.948 C 235.163 83.541,234.300 82.873,233.684 82.463 C 230.797 80.544,227.500 78.053,227.500 77.791 C 227.500 77.631,227.314 77.500,227.086 77.500 C 226.858 77.500,225.878 76.902,224.908 76.172 C 223.938 75.441,222.490 74.352,221.691 73.750 C 220.892 73.148,219.992 72.512,219.692 72.336 C 219.391 72.159,218.388 71.445,217.463 70.748 C 214.524 68.535,209.873 65.157,209.028 64.622 C 208.580 64.338,208.017 63.920,207.778 63.693 C 207.328 63.266,203.979 60.845,201.604 59.230 C 200.854 58.720,200.172 58.122,200.087 57.902 C 200.002 57.681,199.766 57.500,199.562 57.500 C 199.221 57.500,195.596 54.913,193.238 52.988 C 192.000 51.977,191.596 51.985,190.235 53.047 M111.400 81.874 C 104.763 86.192,102.084 92.693,103.906 100.056 L 104.753 103.476 103.917 106.660 C 103.457 108.411,102.950 110.088,102.791 110.386 C 102.631 110.685,102.485 111.318,102.468 111.793 C 102.441 112.507,102.385 112.441,102.143 111.406 C 100.512 104.437,98.112 101.288,92.038 98.151 L 90.171 97.186 89.753 98.984 C 87.988 106.573,92.230 114.560,99.785 117.872 L 101.290 118.532 101.088 120.594 C 100.757 123.991,100.673 124.062,99.583 121.863 C 97.949 118.566,95.121 116.084,90.699 114.065 C 87.907 112.790,87.968 112.725,87.974 116.980 C 87.981 120.891,88.785 123.745,90.709 126.682 C 91.979 128.622,96.745 132.155,99.003 132.832 C 100.455 133.267,100.564 133.475,100.666 136.011 C 100.759 138.319,100.677 138.359,99.408 136.614 C 98.825 135.812,97.802 134.734,97.134 134.219 C 96.467 133.703,95.739 133.121,95.518 132.926 C 94.418 131.955,89.534 130.000,88.209 130.000 C 87.461 130.000,87.455 130.024,87.586 132.578 C 87.916 138.997,90.977 143.850,96.406 146.562 C 96.922 146.820,97.414 147.109,97.500 147.206 C 97.586 147.302,98.700 147.660,99.976 148.002 L 102.295 148.622 103.052 150.796 C 104.712 155.567,104.622 155.857,102.078 153.954 C 99.958 152.369,96.082 151.094,92.375 150.763 L 89.907 150.543 90.080 151.837 C 91.079 159.282,98.667 165.625,106.574 165.625 C 108.560 165.625,109.595 166.560,110.177 168.879 L 110.380 169.685 108.273 168.892 C 104.614 167.515,97.449 167.524,97.257 168.906 C 97.047 170.424,101.188 175.945,103.918 177.788 C 107.237 180.028,111.954 181.035,115.762 180.316 L 117.829 179.926 120.174 182.271 C 123.744 185.841,125.625 186.945,125.625 185.471 C 125.625 185.235,125.374 184.962,125.066 184.865 C 124.759 184.767,123.263 183.514,121.742 182.079 L 118.976 179.471 120.169 178.563 C 122.046 177.137,125.000 174.269,125.000 173.873 C 125.000 173.676,125.208 173.342,125.462 173.131 C 128.002 171.023,128.806 162.474,126.886 157.995 C 126.073 156.097,124.949 156.514,121.696 159.916 C 117.436 164.373,115.553 172.653,117.831 176.909 C 118.637 178.416,117.400 177.228,115.466 174.639 C 111.595 169.454,109.541 165.478,110.525 165.076 C 113.266 163.956,117.066 160.899,119.392 157.941 C 120.633 156.363,121.406 152.811,121.406 148.687 C 121.406 144.067,121.303 143.866,119.375 144.752 C 112.514 147.908,108.882 153.441,108.753 160.938 L 108.724 162.656 108.125 161.563 C 107.796 160.961,107.520 160.297,107.513 160.087 C 107.506 159.878,107.151 158.944,106.725 158.012 C 105.856 156.112,104.320 150.645,104.259 149.235 C 104.221 148.364,104.312 148.294,105.938 147.943 C 113.616 146.286,118.203 140.801,119.179 132.109 C 119.394 130.191,118.879 129.781,117.261 130.581 C 116.963 130.729,115.945 131.096,115.000 131.397 C 109.076 133.285,105.813 136.634,104.040 142.647 C 103.170 145.598,103.087 145.420,102.524 139.375 C 101.998 133.725,102.024 133.437,103.047 133.438 C 108.220 133.443,115.008 129.489,117.113 125.244 C 118.575 122.295,119.834 118.332,119.547 117.584 C 119.400 117.202,118.979 117.154,117.262 117.326 C 110.438 118.008,105.015 122.200,102.788 128.516 C 102.242 130.064,101.873 130.000,101.885 128.359 C 101.892 127.404,102.659 119.433,102.800 118.853 C 102.807 118.824,103.762 118.705,104.922 118.590 C 113.634 117.723,120.938 111.215,120.938 104.318 C 120.938 102.733,112.052 104.536,109.221 106.696 C 108.641 107.138,108.052 107.506,107.911 107.513 C 107.568 107.531,105.273 110.515,104.691 111.700 C 103.868 113.375,103.948 111.786,104.883 107.873 C 105.564 105.021,105.930 104.061,106.550 103.501 C 110.984 99.492,111.943 98.327,113.285 95.313 C 114.518 92.543,114.598 87.341,113.459 83.906 C 112.550 81.165,112.526 81.141,111.400 81.874 M267.883 81.878 C 266.496 84.099,265.986 91.359,267.005 94.375 C 268.060 97.496,270.913 101.138,274.166 103.517 C 274.472 103.740,274.842 104.411,274.988 105.008 C 275.135 105.605,275.549 107.206,275.908 108.566 C 276.924 112.404,276.806 113.018,275.454 110.930 C 272.694 106.671,268.360 104.341,262.344 103.881 C 259.503 103.664,259.273 103.832,259.837 105.706 C 260.788 108.867,264.429 114.928,265.411 114.985 C 265.552 114.993,266.114 115.334,266.661 115.742 C 268.663 117.236,272.024 118.300,275.597 118.571 C 278.181 118.767,277.902 118.209,278.420 124.219 C 278.825 128.915,278.828 129.688,278.438 129.688 C 278.266 129.688,278.125 129.536,278.125 129.351 C 278.125 128.469,275.754 124.239,274.443 122.780 C 271.830 119.874,267.509 117.742,263.398 117.330 C 260.801 117.070,260.728 117.186,261.562 120.225 C 263.611 127.696,267.759 131.592,275.156 132.992 C 276.703 133.285,278.163 133.578,278.399 133.643 C 278.725 133.732,278.782 134.122,278.633 135.240 C 278.524 136.053,278.292 137.914,278.117 139.375 C 277.941 140.836,277.686 142.664,277.549 143.438 L 277.301 144.844 276.901 143.438 C 275.045 136.917,270.365 132.197,264.482 130.915 C 263.822 130.771,262.895 130.560,262.422 130.446 C 260.830 130.063,261.480 135.499,263.525 139.671 C 264.417 141.490,267.353 145.000,267.984 145.000 C 268.115 145.000,268.683 145.352,269.247 145.781 C 269.810 146.211,270.386 146.563,270.526 146.564 C 270.666 146.565,271.133 146.748,271.563 146.970 C 271.992 147.191,273.293 147.628,274.453 147.940 C 276.860 148.587,276.875 148.623,275.961 151.433 C 275.630 152.449,275.126 154.195,274.839 155.313 C 274.553 156.430,274.209 157.484,274.075 157.656 C 273.941 157.828,273.664 158.488,273.460 159.122 C 273.256 159.756,272.821 160.811,272.494 161.466 L 271.900 162.656 271.887 160.911 C 271.855 156.347,270.276 152.081,267.530 149.141 C 266.688 148.238,265.875 147.500,265.725 147.500 C 265.575 147.500,265.230 147.254,264.959 146.953 C 263.796 145.661,259.821 143.889,259.567 144.550 C 257.781 149.205,259.966 157.311,264.022 161.076 C 265.178 162.149,266.275 162.878,270.283 165.241 C 270.789 165.539,268.997 169.223,266.945 172.102 C 261.971 179.082,262.287 178.761,262.969 176.145 C 264.627 169.778,262.794 163.356,258.125 159.173 C 254.424 155.857,254.255 155.884,253.154 159.964 C 251.217 167.140,253.617 173.361,260.285 178.455 L 261.664 179.508 258.879 182.101 C 257.347 183.527,255.848 184.772,255.547 184.868 C 254.942 185.061,254.815 185.786,255.331 186.105 C 255.797 186.393,257.559 185.095,260.461 182.326 L 262.952 179.949 265.304 180.288 C 272.663 181.352,279.381 177.558,282.916 170.343 C 283.962 168.210,283.476 167.962,278.271 167.981 C 274.964 167.993,274.222 168.136,271.672 169.255 C 269.783 170.084,269.749 169.541,271.516 166.797 C 272.241 165.671,272.340 165.625,274.026 165.625 C 278.718 165.625,283.378 163.662,286.130 160.527 C 288.588 157.727,291.229 151.540,290.251 150.874 C 289.606 150.435,285.687 150.912,283.134 151.742 C 281.849 152.159,280.631 152.500,280.425 152.500 C 280.220 152.500,280.005 152.608,279.948 152.740 C 279.790 153.103,276.552 155.406,276.405 155.260 C 276.335 155.189,276.494 154.505,276.758 153.739 C 277.022 152.973,277.405 151.519,277.610 150.507 L 277.982 148.668 280.238 148.082 C 287.515 146.192,291.877 141.308,292.981 133.813 C 293.242 132.043,293.363 130.444,293.249 130.260 C 293.022 129.893,290.694 130.110,289.772 130.584 C 288.243 131.370,285.625 132.500,285.332 132.500 C 285.149 132.500,285.000 132.614,285.000 132.753 C 285.000 132.891,284.437 133.419,283.749 133.924 C 283.062 134.430,281.972 135.601,281.328 136.526 L 280.156 138.207 280.063 136.088 C 279.945 133.409,280.002 133.280,281.479 132.905 C 283.872 132.297,290.313 127.247,290.313 125.979 C 290.313 125.809,290.488 125.484,290.703 125.257 C 292.784 123.057,293.694 112.741,291.758 113.299 C 287.327 114.577,283.147 117.950,281.038 121.950 L 280.044 123.834 279.881 122.777 C 279.792 122.195,279.638 120.993,279.540 120.107 L 279.361 118.495 280.852 117.935 C 281.673 117.628,282.414 117.288,282.500 117.180 C 282.586 117.072,283.186 116.628,283.834 116.193 C 289.518 112.379,292.033 106.195,290.834 98.984 C 290.561 97.343,290.319 97.234,288.720 98.028 C 282.832 100.951,279.551 105.278,278.580 111.397 C 278.347 112.865,277.994 112.446,277.668 110.313 C 277.549 109.539,277.097 107.738,276.662 106.311 C 276.227 104.883,275.941 103.407,276.026 103.030 C 276.112 102.652,276.476 101.219,276.836 99.844 C 278.355 94.041,276.947 89.233,272.381 84.622 C 269.495 81.709,268.404 81.043,267.883 81.878 M137.578 116.485 C 136.577 116.600,136.563 116.626,136.567 118.223 C 136.572 119.759,136.859 120.711,137.301 120.652 C 138.875 120.441,138.750 118.137,138.750 147.324 L 138.750 174.023 137.734 174.121 L 136.719 174.219 136.719 176.094 L 136.719 177.969 146.229 178.052 C 156.531 178.141,156.240 178.189,156.241 176.406 C 156.242 174.621,155.937 174.063,154.962 174.063 L 154.059 174.063 154.139 147.266 L 154.219 120.469 154.978 120.553 C 156.273 120.697,156.853 117.836,155.752 116.734 C 155.279 116.261,141.185 116.068,137.578 116.485 M182.720 116.468 C 181.540 116.775,182.114 120.447,183.361 120.567 L 184.379 120.665 184.299 147.283 L 184.219 173.900 183.281 174.063 C 182.362 174.222,182.344 174.261,182.344 176.097 L 182.344 177.969 191.912 178.051 L 201.481 178.134 201.666 176.958 C 201.767 176.311,201.796 175.500,201.730 175.156 C 201.664 174.813,201.600 174.426,201.586 174.297 C 201.573 174.168,201.141 174.063,200.625 174.063 L 199.688 174.063 199.688 147.197 C 199.688 123.949,199.748 120.355,200.137 120.505 C 201.411 120.994,202.582 117.318,201.417 116.489 C 201.071 116.243,183.661 116.224,182.720 116.468 M228.117 116.506 C 227.603 116.735,227.323 118.637,227.651 119.669 C 227.777 120.067,228.237 120.364,228.926 120.493 L 230.003 120.695 229.924 147.301 L 229.844 173.906 228.828 174.004 L 227.813 174.102 227.813 176.114 L 227.813 178.125 237.310 178.125 C 247.993 178.125,247.188 178.331,247.188 175.599 L 247.188 174.063 246.094 174.063 L 245.000 174.063 245.000 147.344 C 245.000 118.136,244.875 120.441,246.449 120.652 C 247.438 120.784,247.421 116.699,246.432 116.433 C 245.503 116.184,228.690 116.251,228.117 116.506 M128.750 183.906 C 128.750 186.540,128.854 187.517,129.141 187.562 C 129.355 187.596,127.984 187.701,126.094 187.796 L 122.656 187.969 122.568 191.328 L 122.479 194.688 190.469 194.688 L 258.459 194.688 258.370 191.328 L 258.281 187.969 255.313 187.881 L 252.344 187.793 252.440 184.053 L 252.537 180.313 190.643 180.313 L 128.750 180.313 128.750 183.906 M184.448 216.563 C 184.448 217.164,184.512 217.410,184.590 217.109 C 184.669 216.809,184.669 216.316,184.590 216.016 C 184.512 215.715,184.448 215.961,184.448 216.563 M233.547 255.000 C 233.547 256.461,233.601 257.059,233.666 256.328 C 233.732 255.598,233.732 254.402,233.666 253.672 C 233.601 252.941,233.547 253.539,233.547 255.000 M183.995 257.731 C 184.903 257.794,186.309 257.793,187.120 257.729 C 187.930 257.665,187.188 257.613,185.469 257.614 C 183.750 257.615,183.087 257.667,183.995 257.731 M213.682 257.731 C 214.590 257.794,215.997 257.793,216.807 257.729 C 217.618 257.665,216.875 257.613,215.156 257.614 C 213.438 257.615,212.774 257.667,213.682 257.731 M233.543 260.625 C 233.543 261.914,233.598 262.441,233.665 261.797 C 233.733 261.152,233.733 260.098,233.665 259.453 C 233.598 258.809,233.543 259.336,233.543 260.625 " stroke="none" fill="#4e8383" fill-rule="evenodd"></path><path id="path1" d="M0.000 200.000 L 0.000 400.000 200.000 400.000 L 400.000 400.000 400.000 200.000 L 400.000 0.000 200.000 0.000 L 0.000 0.000 0.000 200.000 M192.552 52.109 C 192.609 52.238,193.219 52.729,193.906 53.200 C 194.594 53.671,195.578 54.373,196.094 54.760 C 196.609 55.147,198.016 56.178,199.219 57.052 C 200.422 57.926,202.602 59.508,204.063 60.569 C 210.719 65.402,213.905 67.744,215.301 68.828 C 216.130 69.473,216.952 70.000,217.128 70.000 C 217.304 70.000,217.495 70.105,217.552 70.234 C 217.654 70.464,218.898 71.414,222.360 73.906 C 223.315 74.594,224.863 75.719,225.799 76.406 C 226.736 77.094,228.279 78.219,229.228 78.906 C 231.209 80.341,234.383 82.690,234.844 83.062 C 235.110 83.277,236.798 84.488,241.248 87.656 C 243.204 89.049,248.270 92.734,249.840 93.906 C 250.760 94.594,253.142 96.351,255.132 97.811 L 258.750 100.466 258.750 104.921 C 258.750 108.946,258.697 109.377,258.203 109.396 C 257.902 109.408,256.496 109.399,255.078 109.377 L 252.500 109.336 252.500 111.856 L 252.500 114.375 191.732 114.375 L 130.964 114.375 130.873 111.953 C 130.810 110.299,130.657 109.519,130.391 109.492 C 130.176 109.471,128.875 109.436,127.500 109.414 L 125.000 109.375 125.000 104.735 C 125.000 100.553,125.056 100.068,125.571 99.813 C 125.885 99.658,127.608 98.445,129.399 97.118 C 132.372 94.915,138.632 90.333,140.156 89.244 C 140.500 88.998,142.716 87.380,145.082 85.649 C 147.447 83.917,149.510 82.500,149.665 82.500 C 149.821 82.500,149.995 82.385,150.052 82.243 C 150.164 81.968,153.395 79.551,162.899 72.635 C 164.064 71.787,165.401 70.813,165.871 70.469 C 166.341 70.125,167.990 68.933,169.535 67.821 C 171.080 66.708,172.484 65.681,172.656 65.540 C 172.828 65.398,175.500 63.456,178.594 61.224 C 181.688 58.992,184.467 56.959,184.771 56.707 C 185.075 56.454,186.059 55.731,186.958 55.099 C 187.858 54.468,189.227 53.488,190.000 52.921 C 191.354 51.929,192.333 51.617,192.552 52.109 M112.757 81.339 C 113.258 81.943,114.311 86.134,114.541 88.438 C 115.046 93.505,112.985 98.168,108.463 102.186 C 106.555 103.882,106.203 104.370,105.672 106.048 C 104.171 110.792,104.036 112.222,105.279 110.211 C 107.693 106.304,113.807 103.438,119.726 103.438 C 121.669 103.438,121.730 103.609,120.784 106.428 C 118.197 114.134,113.637 117.854,105.641 118.778 C 104.188 118.946,102.941 119.142,102.870 119.214 C 102.697 119.386,102.221 125.631,102.214 127.813 L 102.208 129.531 102.757 127.942 C 104.363 123.296,108.323 119.455,112.969 118.036 C 115.306 117.322,119.390 116.765,119.738 117.113 C 120.567 117.942,117.595 125.887,115.776 127.706 C 115.529 127.953,115.148 128.395,114.929 128.687 C 113.373 130.768,108.979 132.811,104.612 133.484 L 102.193 133.857 102.358 136.069 C 102.448 137.286,102.684 139.617,102.881 141.250 L 103.240 144.219 103.774 142.500 C 105.919 135.591,110.634 131.570,118.272 130.137 L 119.375 129.930 119.375 131.768 C 119.375 139.216,115.004 145.121,107.574 147.708 C 105.929 148.281,104.517 148.816,104.436 148.897 C 104.180 149.153,106.137 155.958,107.059 158.016 C 107.302 158.558,107.506 159.190,107.513 159.422 C 107.520 159.654,107.780 160.320,108.090 160.901 L 108.653 161.959 108.831 159.026 C 109.233 152.414,112.466 147.811,118.974 144.588 C 121.311 143.431,121.177 143.324,121.613 146.698 C 122.579 154.181,119.756 159.983,113.198 163.994 C 112.294 164.547,111.450 165.002,111.323 165.005 C 110.420 165.024,110.275 165.576,110.862 166.754 C 111.929 168.893,113.780 172.012,114.365 172.656 C 114.678 173.000,115.525 174.125,116.248 175.156 L 117.563 177.031 117.297 175.625 C 116.054 169.052,117.715 163.157,121.927 159.195 C 123.306 157.898,126.228 155.789,126.374 155.986 C 127.881 158.015,128.645 165.767,127.688 169.301 C 126.877 172.292,124.472 175.542,121.254 177.996 C 120.392 178.653,119.688 179.353,119.688 179.550 C 119.688 179.982,122.392 182.543,124.452 184.063 C 125.987 185.195,126.341 186.293,125.239 186.503 C 124.589 186.627,121.737 184.465,119.409 182.083 L 117.725 180.361 114.387 180.537 C 107.398 180.905,102.920 178.812,99.167 173.423 C 97.885 171.583,96.540 168.660,96.835 168.358 C 97.827 167.343,105.662 167.520,108.409 168.619 C 110.104 169.297,110.210 169.122,109.158 167.381 C 108.346 166.037,108.197 165.938,106.990 165.938 C 103.863 165.938,98.495 164.439,97.243 163.216 C 97.016 162.994,96.721 162.813,96.587 162.813 C 94.862 162.813,89.688 153.982,89.688 151.037 C 89.688 149.209,100.085 151.617,102.766 154.066 C 104.105 155.289,104.096 155.301,103.435 153.116 C 103.121 152.080,102.775 150.704,102.666 150.059 C 102.476 148.936,102.394 148.867,100.771 148.490 C 98.707 148.010,95.802 146.759,94.531 145.803 C 94.016 145.415,93.450 145.040,93.275 144.970 C 92.497 144.661,89.994 141.552,89.148 139.844 C 87.474 136.466,86.500 129.680,87.691 129.695 C 91.317 129.742,100.000 134.907,100.000 137.016 C 100.000 137.282,100.159 137.500,100.353 137.500 C 100.588 137.500,100.642 137.106,100.513 136.328 C 100.407 135.684,100.318 134.844,100.316 134.463 C 100.313 133.907,99.861 133.560,98.047 132.722 C 94.417 131.044,90.000 127.379,90.000 126.044 C 90.000 125.838,89.811 125.481,89.581 125.250 C 87.788 123.458,86.759 112.813,88.378 112.813 C 91.141 112.813,98.357 118.371,99.845 121.645 C 100.451 122.979,100.592 123.130,100.607 122.465 C 100.617 122.017,100.711 121.022,100.816 120.254 L 101.008 118.858 99.080 117.871 C 91.918 114.205,89.052 109.223,89.453 101.131 C 89.667 96.814,89.694 96.766,91.455 97.521 C 97.383 100.062,102.038 105.921,102.222 111.072 C 102.250 111.877,102.300 111.808,102.527 110.648 C 102.677 109.887,103.169 108.005,103.622 106.466 L 104.445 103.668 103.748 100.771 C 101.902 93.109,103.978 87.264,110.313 82.288 C 112.216 80.792,112.282 80.767,112.757 81.339 M269.958 82.009 C 272.434 83.841,274.589 86.304,275.994 88.906 L 277.344 91.406 277.344 95.469 C 277.344 98.563,277.203 99.993,276.753 101.467 C 276.165 103.390,276.166 103.418,276.826 105.842 C 277.191 107.184,277.693 109.125,277.941 110.156 C 278.259 111.478,278.400 111.755,278.417 111.094 C 278.556 105.726,284.588 98.508,289.890 97.364 L 290.874 97.152 291.102 98.810 C 292.333 107.750,289.235 113.938,281.584 117.826 C 279.549 118.860,279.570 118.816,279.894 121.516 L 280.095 123.189 280.887 121.522 C 282.501 118.125,290.392 112.176,292.307 112.912 C 293.621 113.416,292.943 121.310,291.284 124.820 C 289.723 128.125,286.753 130.790,282.468 132.733 C 280.269 133.731,279.973 134.206,280.017 136.680 L 280.035 137.656 280.720 136.724 C 283.048 133.560,288.327 130.277,291.797 129.837 L 293.438 129.629 293.438 131.226 C 293.438 139.969,287.879 146.810,279.220 148.724 C 278.248 148.939,277.755 150.117,277.050 153.904 L 276.818 155.153 277.628 154.278 C 279.445 152.318,284.417 150.655,288.516 150.636 C 291.353 150.623,291.277 150.454,290.052 154.091 C 287.532 161.574,281.533 165.937,273.766 165.938 C 272.317 165.938,272.270 165.969,271.456 167.464 C 270.373 169.453,270.376 169.459,272.097 168.722 C 274.943 167.502,282.730 167.293,283.844 168.407 C 284.239 168.802,282.206 172.527,280.275 174.946 C 276.995 179.055,273.643 180.456,267.076 180.464 L 262.747 180.469 260.661 182.500 C 257.484 185.595,255.897 186.734,255.159 186.450 C 254.290 186.117,254.695 185.165,256.176 184.063 C 257.797 182.855,260.938 179.876,260.938 179.545 C 260.938 179.429,260.480 178.957,259.922 178.496 C 256.088 175.329,254.176 172.909,253.109 169.873 C 251.976 166.650,252.398 159.791,253.910 156.868 L 254.382 155.956 255.791 156.850 C 262.046 160.816,265.285 168.862,263.293 175.483 C 263.041 176.318,262.874 177.041,262.921 177.088 C 263.097 177.264,267.115 171.474,268.816 168.594 C 270.594 165.583,270.591 165.522,268.648 164.571 C 261.422 161.036,257.898 154.313,259.055 146.269 C 259.480 143.318,259.241 143.408,262.398 145.009 C 268.628 148.168,271.875 153.283,271.875 159.938 C 271.875 162.217,272.040 162.242,272.837 160.079 C 273.138 159.262,273.682 157.820,274.045 156.875 C 274.408 155.930,274.830 154.664,274.982 154.063 C 275.134 153.461,275.486 152.134,275.765 151.114 C 276.422 148.712,276.383 148.648,273.859 147.982 C 266.328 145.996,261.278 139.448,261.255 131.641 C 261.249 129.733,261.170 129.758,264.376 130.646 C 271.060 132.498,275.431 136.708,276.969 142.774 L 277.395 144.454 277.917 139.493 C 278.204 136.764,278.439 134.375,278.438 134.183 C 278.438 133.992,277.771 133.744,276.956 133.632 C 267.976 132.401,263.107 128.035,261.080 119.399 C 260.478 116.834,260.597 116.731,263.638 117.188 C 270.951 118.290,275.338 121.503,277.712 127.499 L 278.393 129.219 278.415 127.829 C 278.442 126.171,277.802 119.283,277.602 119.069 C 277.525 118.987,276.310 118.824,274.903 118.706 C 267.088 118.055,261.558 113.383,259.686 105.850 C 259.045 103.269,259.051 103.264,262.292 103.543 C 268.233 104.055,272.868 106.496,275.737 110.625 L 276.280 111.406 276.115 110.469 C 275.677 107.974,274.378 103.933,273.934 103.685 C 268.263 100.510,264.768 91.930,266.516 85.469 C 267.895 80.372,267.832 80.436,269.958 82.009 M156.250 118.359 L 156.250 120.625 155.313 120.625 L 154.375 120.625 154.375 147.188 L 154.375 173.750 155.313 173.750 L 156.250 173.750 156.250 176.094 L 156.250 178.438 146.406 178.438 L 136.563 178.438 136.563 176.094 L 136.563 173.750 137.500 173.750 L 138.438 173.750 138.438 147.188 L 138.438 120.625 137.500 120.625 L 136.563 120.625 136.563 118.359 L 136.563 116.094 146.407 116.094 L 156.250 116.094 156.250 118.359 M201.875 118.261 L 201.875 120.585 200.859 120.683 L 199.844 120.781 199.844 147.188 L 199.844 173.594 200.859 173.692 L 201.875 173.790 201.875 176.118 L 201.875 178.446 192.007 178.364 L 182.138 178.281 182.085 176.094 L 182.031 173.906 183.047 173.808 L 184.063 173.710 184.063 147.168 L 184.063 120.625 183.047 120.625 L 182.031 120.624 182.030 118.441 L 182.028 116.259 191.873 116.172 C 197.288 116.124,201.754 116.052,201.797 116.011 C 201.840 115.971,201.875 116.983,201.875 118.261 M247.500 118.438 L 247.500 120.625 246.406 120.625 L 245.313 120.625 245.313 147.188 L 245.313 173.750 246.406 173.750 L 247.500 173.750 247.500 176.094 L 247.500 178.438 237.500 178.438 L 227.500 178.438 227.500 176.094 L 227.500 173.750 228.594 173.750 L 229.688 173.750 229.688 147.188 L 229.688 120.625 228.594 120.625 L 227.500 120.625 227.500 118.438 L 227.500 116.250 237.500 116.250 L 247.500 116.250 247.500 118.438 M252.500 183.925 L 252.500 187.849 255.547 187.787 L 258.594 187.725 258.682 191.363 L 258.770 195.000 190.635 195.000 L 122.500 195.000 122.500 191.418 L 122.500 187.836 125.391 187.746 L 128.281 187.656 128.369 183.828 L 128.457 180.000 190.478 180.000 L 252.500 180.000 252.500 183.925 M172.479 216.719 C 174.100 218.438,176.493 220.969,177.797 222.344 C 179.101 223.719,180.745 225.512,181.451 226.328 C 182.157 227.145,182.826 227.813,182.936 227.813 C 183.047 227.813,183.100 224.896,183.053 221.331 L 182.969 214.849 181.875 214.328 L 180.781 213.808 183.548 213.701 C 186.437 213.589,187.791 213.891,186.012 214.249 C 184.628 214.528,184.625 214.554,184.742 224.177 C 184.798 228.755,184.761 232.500,184.660 232.500 C 184.560 232.500,182.942 230.859,181.067 228.853 C 179.191 226.847,176.584 224.069,175.273 222.681 C 173.963 221.292,172.314 219.523,171.610 218.750 L 170.329 217.344 170.321 223.759 C 170.312 230.605,170.505 231.563,171.893 231.563 C 172.227 231.563,172.500 231.703,172.500 231.875 C 172.500 232.060,171.348 232.188,169.669 232.188 C 167.861 232.188,166.908 232.075,167.031 231.875 C 167.137 231.703,167.417 231.563,167.652 231.563 C 168.991 231.563,169.082 230.966,169.062 222.234 C 169.052 217.654,169.048 213.789,169.053 213.646 C 169.070 213.175,169.499 213.559,172.479 216.719 M199.355 215.078 C 199.340 216.344,199.273 216.563,199.060 216.036 C 198.635 214.981,197.755 214.688,195.021 214.688 L 192.500 214.688 192.500 218.594 L 192.500 222.500 194.991 222.500 L 197.482 222.500 197.775 221.484 C 198.025 220.622,198.071 220.821,198.087 222.813 C 198.102 224.713,198.039 225.038,197.752 224.531 C 197.202 223.562,196.871 223.447,194.609 223.442 L 192.500 223.438 192.500 227.385 L 192.500 231.332 194.766 231.187 C 197.557 231.007,199.110 230.309,199.874 228.890 C 200.413 227.890,201.193 227.327,200.826 228.203 C 200.736 228.418,200.430 229.341,200.147 230.255 C 199.863 231.169,199.463 231.981,199.257 232.060 C 198.317 232.420,188.278 232.033,189.092 231.667 C 190.544 231.014,190.695 230.052,190.542 222.444 C 190.395 215.113,190.287 214.375,189.360 214.375 C 189.045 214.375,188.702 214.238,188.599 214.071 C 188.481 213.881,190.141 213.731,193.034 213.671 C 195.576 213.619,198.043 213.545,198.516 213.507 C 199.355 213.439,199.375 213.476,199.355 215.078 M216.396 214.085 C 218.361 214.821,218.591 215.134,218.848 217.422 C 219.072 219.405,218.962 219.453,218.092 217.749 C 214.539 210.783,204.947 214.561,205.024 222.897 C 205.114 232.647,217.510 234.965,219.194 225.547 C 219.507 223.797,219.927 224.133,219.781 226.016 C 219.578 228.613,219.450 228.939,218.135 230.185 C 214.862 233.287,209.179 233.215,205.547 230.027 C 201.504 226.477,201.968 217.883,206.348 215.171 C 206.896 214.833,207.414 214.465,207.500 214.356 C 208.327 213.300,213.847 213.132,216.396 214.085 M104.710 252.348 C 106.848 253.079,107.657 254.490,107.652 257.477 C 107.646 261.713,106.156 263.111,101.641 263.120 L 99.063 263.125 99.063 257.708 C 99.063 254.729,99.156 252.198,99.271 252.083 C 99.660 251.695,103.319 251.873,104.710 252.348 M118.271 252.402 C 121.354 253.872,121.483 260.382,118.469 262.410 C 114.837 264.856,110.737 261.890,111.020 257.020 C 111.270 252.704,114.539 250.622,118.271 252.402 M131.497 252.504 C 134.589 254.389,134.410 260.888,131.221 262.515 C 127.375 264.477,124.049 262.123,124.076 257.457 C 124.102 252.754,127.828 250.268,131.497 252.504 M142.804 252.437 C 145.387 253.703,144.961 258.125,142.256 258.125 C 141.310 258.125,141.423 258.476,143.176 260.973 C 143.888 261.989,144.367 262.924,144.240 263.051 C 143.986 263.304,143.230 262.457,141.563 260.055 C 140.429 258.422,140.017 258.170,138.828 258.384 C 138.174 258.502,138.125 258.671,138.125 260.818 C 138.125 262.148,137.993 263.125,137.813 263.125 C 137.616 263.125,137.500 261.042,137.500 257.500 L 137.500 251.875 139.609 251.890 C 140.935 251.899,142.122 252.103,142.804 252.437 M160.156 252.188 C 160.276 252.381,159.693 252.500,158.620 252.500 L 156.890 252.500 156.804 257.657 C 156.752 260.829,156.598 262.814,156.406 262.814 C 156.214 262.814,156.061 260.829,156.008 257.657 L 155.922 252.500 154.211 252.500 C 153.270 252.500,152.500 252.359,152.500 252.188 C 152.500 251.997,153.952 251.875,156.232 251.875 C 158.382 251.875,160.045 252.007,160.156 252.188 M170.872 252.504 C 173.868 254.331,173.820 260.666,170.796 262.450 C 167.114 264.622,163.441 262.173,163.439 257.543 C 163.436 252.813,167.197 250.264,170.872 252.504 M182.500 254.531 L 182.500 257.188 185.781 257.188 L 189.063 257.188 189.063 254.531 C 189.063 252.969,189.191 251.875,189.375 251.875 C 189.572 251.875,189.688 253.958,189.688 257.500 C 189.688 261.042,189.572 263.125,189.375 263.125 C 189.191 263.125,189.063 262.031,189.063 260.469 L 189.063 257.813 185.781 257.813 L 182.500 257.813 182.500 260.469 C 182.500 262.031,182.371 263.125,182.188 263.125 C 181.991 263.125,181.875 261.042,181.875 257.500 C 181.875 253.958,181.991 251.875,182.188 251.875 C 182.371 251.875,182.500 252.969,182.500 254.531 M194.375 257.500 C 194.375 261.042,194.259 263.125,194.063 263.125 C 193.866 263.125,193.750 261.042,193.750 257.500 C 193.750 253.958,193.866 251.875,194.063 251.875 C 194.259 251.875,194.375 253.958,194.375 257.500 M205.660 252.525 C 206.593 253.189,207.686 254.919,207.371 255.233 C 207.275 255.329,206.587 254.754,205.842 253.954 C 202.290 250.140,197.445 254.263,199.296 259.524 C 200.557 263.107,205.027 263.505,206.425 260.159 C 207.217 258.264,207.109 258.125,204.844 258.125 C 203.698 258.125,202.813 257.989,202.813 257.813 C 202.813 257.632,203.802 257.500,205.156 257.500 L 207.500 257.500 207.500 260.313 C 207.500 261.979,207.373 263.125,207.188 263.125 C 207.016 263.125,206.871 262.668,206.865 262.109 C 206.857 261.246,206.798 261.168,206.474 261.593 C 204.747 263.856,200.834 263.607,199.154 261.127 C 195.811 256.193,201.061 249.250,205.660 252.525 M211.875 254.531 L 211.875 257.188 215.156 257.188 L 218.438 257.188 218.438 254.531 C 218.438 252.969,218.566 251.875,218.750 251.875 C 218.947 251.875,219.063 253.958,219.063 257.500 C 219.063 261.042,218.947 263.125,218.750 263.125 C 218.566 263.125,218.438 262.031,218.438 260.469 L 218.438 257.813 215.156 257.813 L 211.875 257.813 211.875 260.469 C 211.875 262.031,211.746 263.125,211.563 263.125 C 211.366 263.125,211.250 261.042,211.250 257.500 C 211.250 253.958,211.366 251.875,211.563 251.875 C 211.746 251.875,211.875 252.969,211.875 254.531 M229.531 252.188 C 229.655 252.388,228.649 252.500,226.737 252.500 L 223.750 252.500 223.750 254.673 L 223.750 256.847 224.863 257.056 C 225.476 257.170,226.603 257.194,227.368 257.108 C 228.134 257.021,228.834 257.070,228.924 257.216 C 229.193 257.651,227.606 257.897,225.614 257.729 L 223.750 257.572 223.750 260.036 L 223.750 262.500 226.719 262.500 C 228.490 262.500,229.688 262.626,229.688 262.813 C 229.688 263.001,228.385 263.125,226.406 263.125 L 223.125 263.125 223.125 257.500 L 223.125 251.875 226.232 251.875 C 227.966 251.875,229.423 252.013,229.531 252.188 M238.312 252.228 C 241.444 253.017,241.351 258.071,238.203 258.115 C 237.282 258.128,237.275 258.103,238.906 260.485 C 240.243 262.438,240.557 263.125,240.115 263.125 C 239.831 263.125,238.832 261.927,238.043 260.639 C 235.893 257.132,234.286 257.252,234.175 260.929 C 234.141 262.049,233.963 263.002,233.776 263.064 C 233.541 263.142,233.438 261.441,233.438 257.526 L 233.438 251.875 235.174 251.875 C 236.129 251.875,237.541 252.034,238.312 252.228 M250.000 257.188 L 250.000 262.500 252.656 262.500 C 254.219 262.500,255.313 262.629,255.313 262.813 C 255.313 262.999,254.115 263.125,252.344 263.125 L 249.375 263.125 249.375 257.500 C 249.375 253.958,249.491 251.875,249.688 251.875 C 249.884 251.875,250.000 253.854,250.000 257.188 M265.156 252.188 C 265.280 252.387,264.322 252.500,262.505 252.500 L 259.660 252.500 259.752 254.766 L 259.844 257.031 262.259 257.051 C 263.588 257.062,264.758 257.154,264.860 257.256 C 265.159 257.555,263.419 257.797,261.484 257.724 L 259.687 257.656 259.687 260.078 L 259.688 262.500 262.500 262.500 C 264.230 262.500,265.313 262.624,265.313 262.823 C 265.313 263.031,264.166 263.115,262.109 263.058 L 258.906 262.969 258.820 257.824 C 258.773 254.995,258.803 252.499,258.888 252.278 C 259.078 251.785,264.856 251.702,265.156 252.188 M269.312 253.516 C 269.662 254.418,270.586 256.844,271.367 258.906 C 272.147 260.969,272.792 262.429,272.799 262.151 C 272.811 261.711,273.554 259.621,274.398 257.656 C 274.546 257.313,275.025 255.982,275.463 254.699 C 276.251 252.390,276.702 251.598,277.038 251.934 C 277.207 252.103,275.944 255.751,274.004 260.703 C 272.615 264.247,272.256 264.049,270.450 258.738 C 269.886 257.080,269.226 255.245,268.982 254.659 C 268.330 253.090,268.074 251.875,268.395 251.875 C 268.550 251.875,268.963 252.613,269.312 253.516 M286.406 252.188 C 286.530 252.387,285.576 252.500,283.768 252.500 L 280.938 252.500 280.938 254.654 C 280.938 257.169,280.960 257.188,283.994 257.188 C 285.518 257.188,285.971 257.279,285.713 257.537 C 285.496 257.754,284.528 257.839,283.151 257.761 L 280.938 257.636 280.938 260.068 L 280.938 262.500 283.750 262.500 C 285.417 262.500,286.563 262.627,286.563 262.813 C 286.563 263.001,285.260 263.125,283.281 263.125 L 280.000 263.125 280.000 257.708 C 280.000 254.729,280.094 252.198,280.208 252.083 C 280.543 251.749,286.194 251.844,286.406 252.188 M291.250 257.362 L 291.250 262.500 293.906 262.500 C 295.531 262.500,296.563 262.626,296.563 262.824 C 296.563 263.031,295.467 263.115,293.516 263.058 L 290.469 262.969 290.383 257.824 C 290.295 252.577,290.380 251.686,290.935 252.030 C 291.126 252.148,291.250 254.250,291.250 257.362 M100.000 257.500 L 100.000 262.500 101.729 262.500 C 105.338 262.500,107.031 260.903,107.031 257.500 C 107.031 254.175,105.197 252.500,101.556 252.500 L 100.000 252.500 100.000 257.500 M113.521 253.203 C 108.942 256.419,113.206 264.889,117.844 261.791 C 120.540 259.990,120.754 254.465,118.174 253.285 C 117.804 253.116,117.500 252.870,117.500 252.738 C 117.500 252.166,114.499 252.516,113.521 253.203 M126.842 252.968 C 123.203 254.945,124.610 262.500,128.617 262.500 C 131.662 262.500,133.383 259.851,132.806 256.051 C 132.375 253.210,129.310 251.626,126.842 252.968 M138.125 255.000 L 138.125 257.500 140.234 257.490 C 142.412 257.480,143.078 257.202,143.693 256.046 C 144.645 254.259,142.674 252.500,139.718 252.500 L 138.125 252.500 138.125 255.000 M166.052 253.100 C 163.345 254.750,163.468 260.274,166.247 261.836 C 171.134 264.582,175.080 256.777,170.551 253.322 C 169.239 252.322,167.470 252.235,166.052 253.100 M234.063 255.000 L 234.063 257.500 236.384 257.500 C 238.519 257.500,238.756 257.434,239.352 256.677 C 241.039 254.533,239.230 252.500,235.635 252.500 L 234.063 252.500 234.063 255.000 " stroke="none" fill="#fbfbfb" fill-rule="evenodd"></path><path id="path2" d="M193.750 213.762 C 190.914 213.854,188.859 213.960,189.184 213.996 C 190.505 214.145,190.605 214.765,190.615 222.891 C 190.624 230.215,190.592 230.658,190.000 231.250 L 189.375 231.875 194.337 231.875 L 199.299 231.875 199.692 230.927 C 200.152 229.817,199.963 229.457,199.279 230.140 C 198.462 230.958,197.248 231.250,194.667 231.250 L 192.188 231.250 192.188 227.344 L 192.188 223.438 194.828 223.438 C 197.014 223.438,197.524 223.532,197.787 223.984 C 198.034 224.408,198.106 224.179,198.106 222.969 C 198.106 221.758,198.034 221.529,197.787 221.953 C 197.524 222.406,197.014 222.500,194.828 222.500 L 192.188 222.500 192.188 218.594 L 192.188 214.688 195.250 214.688 C 197.009 214.688,198.455 214.830,198.647 215.022 C 198.884 215.259,199.026 215.121,199.136 214.546 C 199.334 213.509,199.732 213.567,193.750 213.762 M209.410 213.913 C 199.275 216.750,201.563 232.281,212.116 232.279 C 216.249 232.278,219.155 230.034,219.517 226.563 L 219.697 224.844 219.276 226.310 C 217.820 231.389,211.964 233.290,207.629 230.090 C 203.147 226.782,204.032 216.901,208.996 214.827 C 212.381 213.412,216.209 214.275,217.880 216.830 C 218.402 217.628,218.741 218.024,218.633 217.709 C 218.526 217.394,218.438 216.690,218.438 216.145 C 218.438 214.274,212.958 212.920,209.410 213.913 M169.319 222.165 C 169.417 230.330,169.401 230.599,168.772 231.228 L 168.125 231.875 169.766 231.865 C 171.197 231.856,171.336 231.802,170.859 231.440 C 170.254 230.981,169.996 217.500,170.593 217.500 C 170.747 217.500,171.329 218.027,171.886 218.672 C 172.444 219.316,174.891 221.953,177.326 224.531 C 179.760 227.109,182.378 229.895,183.142 230.722 L 184.533 232.225 184.426 224.159 C 184.313 215.610,184.443 214.578,185.699 214.074 C 186.211 213.868,185.718 213.790,183.906 213.790 C 181.949 213.790,181.574 213.857,182.179 214.098 C 183.395 214.583,183.428 214.783,183.433 221.797 C 183.437 228.050,183.281 229.202,182.594 228.001 C 182.456 227.761,180.367 225.476,177.952 222.923 C 175.536 220.370,172.658 217.297,171.556 216.094 C 170.454 214.891,169.478 213.871,169.386 213.828 C 169.294 213.785,169.264 217.536,169.319 222.165 M114.075 252.283 C 111.189 253.279,110.047 258.074,112.018 260.919 C 114.372 264.315,119.437 263.253,120.350 259.172 C 121.423 254.379,118.213 250.855,114.075 252.283 M126.842 252.291 C 125.812 252.753,125.000 253.426,125.000 253.816 C 125.000 253.982,125.433 253.754,125.961 253.309 C 130.496 249.493,136.032 257.511,131.683 261.596 C 128.100 264.962,123.363 260.430,124.789 255.000 C 124.955 254.367,124.908 254.396,124.542 255.156 C 121.813 260.822,129.960 266.216,132.809 260.631 C 135.261 255.826,131.300 250.291,126.842 252.291 M166.509 252.231 C 162.846 253.250,162.444 261.235,165.994 262.473 C 170.082 263.898,172.814 261.815,172.811 257.276 C 172.809 253.242,170.248 251.192,166.509 252.231 M201.263 252.283 C 198.443 253.256,197.364 257.645,199.183 260.748 C 200.582 263.136,204.129 263.718,205.913 261.851 L 206.832 260.890 206.960 261.929 C 207.030 262.501,207.095 261.914,207.104 260.625 C 207.119 258.456,207.099 258.379,206.826 259.595 C 205.572 265.189,198.317 262.664,198.810 256.805 C 199.073 253.680,200.309 252.512,203.361 252.504 C 205.048 252.500,205.263 252.631,206.696 254.531 C 206.955 254.875,207.172 254.991,207.178 254.790 C 207.228 252.938,203.699 251.442,201.263 252.283 M99.375 257.500 L 99.375 262.813 101.729 262.813 C 105.997 262.813,107.629 261.344,107.629 257.500 C 107.629 253.691,105.965 252.188,101.750 252.188 L 99.375 252.188 99.375 257.500 M137.563 257.578 C 137.597 260.543,137.674 261.879,137.732 260.547 L 137.839 258.125 139.214 258.125 C 140.411 258.125,140.662 258.247,141.143 259.063 C 141.448 259.578,141.790 260.000,141.904 260.000 C 142.018 260.000,142.282 260.412,142.491 260.915 C 142.847 261.775,144.063 263.156,144.063 262.700 C 144.063 262.584,143.430 261.620,142.656 260.558 C 141.012 258.297,141.002 258.255,142.058 257.990 C 146.383 256.904,144.729 252.188,140.024 252.188 L 137.500 252.188 137.563 257.578 M154.289 252.419 L 156.235 252.529 156.329 257.749 L 156.422 262.969 156.492 257.750 L 156.563 252.531 158.359 252.418 C 159.348 252.356,158.398 252.306,156.250 252.307 C 154.102 252.307,153.219 252.358,154.289 252.419 M182.109 252.368 C 181.749 252.731,181.823 262.431,182.188 262.656 C 182.386 262.779,182.500 261.882,182.500 260.186 L 182.500 257.522 185.703 257.421 L 188.906 257.319 185.716 257.253 L 182.525 257.188 182.435 254.660 C 182.385 253.270,182.238 252.238,182.109 252.368 M189.063 257.500 C 189.063 260.833,189.179 262.813,189.375 262.813 C 189.571 262.813,189.688 260.833,189.688 257.500 C 189.688 254.167,189.571 252.188,189.375 252.188 C 189.179 252.188,189.063 254.167,189.063 257.500 M193.750 257.500 C 193.750 260.833,193.866 262.813,194.063 262.813 C 194.259 262.813,194.375 260.833,194.375 257.500 C 194.375 254.167,194.259 252.188,194.063 252.188 C 193.866 252.188,193.750 254.167,193.750 257.500 M211.250 257.500 C 211.250 260.833,211.366 262.813,211.563 262.813 C 211.759 262.813,211.875 260.833,211.875 257.500 C 211.875 254.167,211.759 252.188,211.563 252.188 C 211.366 252.188,211.250 254.167,211.250 257.500 M218.438 257.500 C 218.438 260.642,218.559 262.813,218.734 262.813 C 218.909 262.813,219.030 260.642,219.030 257.500 C 219.030 254.358,218.909 252.188,218.734 252.188 C 218.559 252.188,218.438 254.358,218.438 257.500 M223.263 252.591 C 223.178 252.813,223.147 255.169,223.195 257.826 L 223.281 262.656 226.406 262.676 L 229.531 262.695 226.641 262.586 L 223.750 262.477 223.750 260.001 L 223.750 257.525 226.328 257.420 L 228.906 257.315 226.328 257.251 L 223.750 257.188 223.750 254.855 L 223.750 252.523 226.641 252.420 L 229.531 252.317 226.475 252.252 C 224.216 252.204,223.377 252.293,223.263 252.591 M233.813 257.546 C 233.847 260.529,233.924 261.879,233.982 260.547 L 234.089 258.125 235.277 258.125 C 236.452 258.125,237.500 258.836,237.500 259.634 C 237.500 259.835,237.605 260.000,237.734 260.001 C 237.863 260.001,238.368 260.634,238.857 261.407 C 239.345 262.180,239.879 262.813,240.044 262.813 C 240.208 262.813,239.879 262.165,239.312 261.374 C 238.745 260.582,238.039 259.567,237.744 259.117 L 237.207 258.300 238.499 257.822 C 239.210 257.559,239.859 257.133,239.942 256.875 C 240.056 256.518,239.938 256.542,239.450 256.975 C 239.002 257.372,238.093 257.598,236.436 257.723 L 234.063 257.903 234.063 255.167 L 234.063 252.432 236.379 252.549 C 239.172 252.690,239.911 253.201,240.085 255.112 L 240.203 256.406 240.258 255.113 C 240.351 252.904,239.635 252.365,236.434 252.234 L 233.750 252.123 233.813 257.546 M249.375 257.500 L 249.375 262.813 252.422 262.748 L 255.469 262.684 252.734 262.580 L 250.000 262.476 250.000 257.332 C 250.000 254.111,249.883 252.188,249.688 252.188 C 249.491 252.188,249.375 254.167,249.375 257.500 M259.063 257.500 L 259.063 262.813 262.109 262.748 L 265.156 262.683 262.266 262.580 L 259.375 262.477 259.375 260.000 L 259.375 257.524 262.109 257.420 L 264.844 257.316 262.109 257.252 L 259.375 257.188 259.375 254.855 L 259.375 252.523 262.266 252.420 L 265.156 252.317 262.109 252.252 L 259.063 252.188 259.063 257.500 M268.957 254.141 C 269.389 255.215,269.870 256.516,270.025 257.031 C 271.348 261.423,272.819 263.771,273.319 262.289 C 273.425 261.975,273.854 260.830,274.274 259.744 C 274.694 258.657,274.981 257.603,274.912 257.400 C 274.843 257.197,274.316 258.270,273.740 259.783 C 272.454 263.159,272.934 263.818,269.182 253.516 C 268.916 252.785,268.580 252.188,268.435 252.188 C 268.290 252.188,268.525 253.066,268.957 254.141 M276.229 253.047 C 276.055 253.520,275.686 254.507,275.411 255.241 C 275.135 255.976,274.988 256.654,275.083 256.749 C 275.178 256.844,275.350 256.595,275.465 256.195 C 275.580 255.796,275.859 255.047,276.084 254.531 C 276.670 253.189,276.947 252.188,276.732 252.188 C 276.630 252.188,276.404 252.574,276.229 253.047 M280.313 257.500 L 280.313 262.813 283.359 262.748 L 286.406 262.683 283.516 262.580 L 280.625 262.477 280.625 260.001 L 280.625 257.525 283.203 257.420 L 285.781 257.315 283.203 257.251 L 280.625 257.188 280.625 254.855 L 280.625 252.523 283.516 252.420 L 286.406 252.317 283.359 252.252 L 280.313 252.188 280.313 257.500 M290.695 257.422 L 290.625 262.813 293.672 262.748 L 296.719 262.683 293.836 262.580 L 290.953 262.477 290.859 257.254 L 290.765 252.031 290.695 257.422 M104.870 253.002 C 108.146 254.557,108.092 260.952,104.793 262.207 C 104.369 262.368,103.047 262.500,101.855 262.500 L 99.688 262.500 99.688 257.500 L 99.688 252.500 101.750 252.500 C 102.996 252.500,104.230 252.699,104.870 253.002 M117.909 252.790 C 120.400 253.737,120.956 259.118,118.787 261.287 C 114.972 265.101,109.873 260.172,112.038 254.762 C 112.829 252.784,115.518 251.881,117.909 252.790 M142.790 252.957 C 143.752 253.454,144.063 254.003,144.063 255.202 C 144.063 257.031,142.691 257.807,139.453 257.811 L 137.813 257.813 137.813 255.156 L 137.813 252.500 139.859 252.500 C 141.044 252.500,142.278 252.692,142.790 252.957 M170.745 253.153 C 175.324 256.754,170.905 264.916,165.959 261.994 C 163.310 260.429,163.260 254.355,165.884 252.824 C 166.882 252.241,169.841 252.441,170.745 253.153 M213.682 257.418 C 214.590 257.482,215.997 257.481,216.807 257.417 C 217.618 257.353,216.875 257.301,215.156 257.302 C 213.438 257.302,212.774 257.355,213.682 257.418 M203.594 257.686 C 205.078 257.924,207.188 257.954,207.188 257.737 C 207.188 257.606,206.238 257.519,205.078 257.543 C 203.918 257.566,203.250 257.630,203.594 257.686 " stroke="none" fill="#111111" fill-rule="evenodd"></path><path id="path3" d="M189.255 53.436 C 187.770 54.560,187.456 54.881,188.281 54.433 C 188.998 54.044,190.860 52.524,190.625 52.520 C 190.539 52.519,189.923 52.931,189.255 53.436 M192.969 52.712 C 193.929 53.638,196.039 55.061,195.409 54.358 C 195.033 53.938,194.259 53.328,193.691 53.002 C 193.122 52.677,192.797 52.547,192.969 52.712 M185.938 55.781 C 185.355 56.211,185.011 56.557,185.174 56.551 C 185.487 56.539,187.465 55.004,187.170 55.002 C 187.075 55.001,186.520 55.352,185.938 55.781 M197.969 56.366 C 198.656 56.984,199.335 57.493,199.477 57.495 C 199.619 57.498,199.338 57.180,198.852 56.789 C 197.219 55.476,196.708 55.231,197.969 56.366 M201.283 58.845 C 203.377 60.419,204.688 61.308,204.688 61.153 C 204.688 60.970,200.356 57.813,200.105 57.813 C 199.998 57.813,200.528 58.277,201.283 58.845 M181.563 59.101 C 180.473 60.055,180.473 60.057,181.475 59.390 C 182.028 59.022,182.564 58.587,182.665 58.423 C 182.967 57.935,182.717 58.089,181.563 59.101 M206.884 62.753 C 206.895 62.989,213.125 67.580,213.125 67.352 C 213.125 67.274,211.719 66.159,210.000 64.874 C 208.281 63.589,206.879 62.634,206.884 62.753 M174.688 64.101 C 173.598 65.055,173.598 65.057,174.600 64.390 C 175.153 64.022,175.689 63.587,175.790 63.423 C 176.092 62.935,175.842 63.089,174.688 64.101 M171.094 66.737 C 170.511 67.232,170.403 67.415,170.807 67.221 C 171.388 66.943,172.441 65.935,172.148 65.939 C 172.084 65.940,171.609 66.299,171.094 66.737 M168.594 68.462 C 166.740 69.864,166.490 70.260,168.229 69.041 C 169.542 68.120,170.257 67.480,169.940 67.509 C 169.887 67.513,169.281 67.943,168.594 68.462 M214.063 68.113 C 215.593 69.396,216.853 70.179,215.625 69.085 C 215.023 68.548,214.250 67.963,213.906 67.784 C 213.481 67.562,213.531 67.668,214.063 68.113 M164.951 71.128 C 163.255 72.537,163.128 72.671,163.906 72.233 C 164.676 71.799,166.768 70.000,166.502 70.000 C 166.396 70.000,165.698 70.507,164.951 71.128 M217.526 70.726 C 217.598 70.782,218.148 71.145,218.750 71.533 L 219.844 72.239 218.906 71.434 C 218.391 70.991,217.840 70.627,217.682 70.627 C 217.525 70.626,217.454 70.671,217.526 70.726 M220.469 72.719 C 220.641 72.881,221.414 73.473,222.188 74.035 L 223.594 75.056 222.500 74.069 C 221.542 73.204,219.653 71.948,220.469 72.719 M160.781 74.246 L 159.844 75.052 160.859 74.380 C 161.418 74.010,161.875 73.647,161.875 73.572 C 161.875 73.339,161.743 73.420,160.781 74.246 M158.594 75.809 L 157.656 76.614 158.672 75.942 C 159.230 75.572,159.688 75.209,159.688 75.135 C 159.688 74.901,159.555 74.983,158.594 75.809 M224.219 75.464 C 224.563 75.738,225.131 76.212,225.482 76.516 C 225.833 76.821,226.325 77.176,226.575 77.306 C 226.826 77.436,226.539 77.101,225.938 76.562 C 225.336 76.023,224.563 75.443,224.219 75.273 L 223.594 74.966 224.219 75.464 M154.844 78.462 C 153.287 79.640,152.726 80.210,153.594 79.733 C 154.298 79.347,156.491 77.517,156.250 77.517 C 156.164 77.517,155.531 77.943,154.844 78.462 M227.672 78.064 C 227.835 78.203,228.531 78.705,229.219 79.182 L 230.469 80.048 229.219 78.935 C 228.531 78.323,227.835 77.820,227.672 77.817 C 227.484 77.814,227.484 77.905,227.672 78.064 M231.250 80.613 C 232.781 81.896,234.041 82.679,232.813 81.585 C 232.211 81.048,231.438 80.463,231.094 80.284 C 230.669 80.062,230.719 80.168,231.250 80.613 M111.094 81.746 L 110.156 82.552 111.142 81.901 C 112.408 81.065,112.414 81.066,112.965 82.266 C 113.296 82.986,113.375 83.054,113.240 82.500 C 112.822 80.795,112.381 80.640,111.094 81.746 M267.683 81.450 C 267.520 81.875,267.566 81.897,267.951 81.578 C 268.328 81.265,268.610 81.320,269.442 81.872 L 270.469 82.552 269.531 81.746 C 268.443 80.811,267.958 80.734,267.683 81.450 M108.097 84.297 C 106.674 85.777,104.748 88.086,105.815 87.031 C 106.984 85.877,110.074 82.500,109.962 82.500 C 109.886 82.500,109.047 83.309,108.097 84.297 M147.813 83.655 C 145.579 85.380,145.795 85.469,148.125 83.785 C 148.727 83.350,149.277 82.953,149.349 82.903 C 149.421 82.853,149.421 82.758,149.349 82.691 C 149.277 82.624,148.586 83.058,147.813 83.655 M272.653 84.688 C 273.845 85.977,274.879 87.102,274.952 87.188 C 275.025 87.273,274.935 87.063,274.753 86.719 C 274.570 86.375,273.535 85.250,272.453 84.219 L 270.486 82.344 272.653 84.688 M235.313 83.551 C 235.313 83.637,235.734 84.008,236.250 84.375 C 236.766 84.742,237.188 84.972,237.188 84.886 C 237.188 84.800,236.766 84.430,236.250 84.063 C 235.734 83.695,235.313 83.465,235.313 83.551 M144.375 86.137 C 142.674 87.473,142.463 87.688,143.281 87.252 C 143.962 86.889,146.191 85.023,145.938 85.029 C 145.852 85.031,145.148 85.529,144.375 86.137 M237.500 85.112 C 237.500 85.190,238.218 85.770,239.095 86.400 C 239.972 87.030,240.598 87.397,240.485 87.214 C 240.250 86.834,237.500 84.897,237.500 85.112 M241.563 88.113 C 243.093 89.396,244.353 90.179,243.125 89.085 C 242.523 88.548,241.750 87.963,241.406 87.784 C 240.981 87.562,241.031 87.668,241.563 88.113 M275.469 88.438 C 275.735 88.953,276.024 89.375,276.110 89.375 C 276.196 89.375,276.048 88.953,275.781 88.438 C 275.515 87.922,275.226 87.500,275.140 87.500 C 275.054 87.500,275.202 87.922,275.469 88.438 M140.946 88.609 C 140.350 89.030,139.998 89.374,140.165 89.373 C 140.332 89.373,140.891 89.026,141.406 88.603 C 142.610 87.617,142.348 87.620,140.946 88.609 M266.031 89.688 C 266.031 90.633,266.090 91.020,266.161 90.547 C 266.233 90.074,266.233 89.301,266.161 88.828 C 266.090 88.355,266.031 88.742,266.031 89.688 M137.727 90.994 C 136.748 91.713,136.015 92.370,136.100 92.454 C 136.184 92.538,136.568 92.316,136.954 91.961 C 137.340 91.606,138.203 90.949,138.872 90.502 C 139.540 90.054,139.957 89.688,139.797 89.688 C 139.637 89.688,138.706 90.276,137.727 90.994 M244.375 90.114 C 244.375 90.200,244.797 90.570,245.313 90.938 C 245.828 91.305,246.250 91.535,246.250 91.449 C 246.250 91.363,245.828 90.992,245.313 90.625 C 244.797 90.258,244.375 90.028,244.375 90.114 M103.616 91.116 C 103.501 91.574,103.467 92.009,103.541 92.083 C 103.615 92.156,103.769 91.842,103.884 91.384 C 103.999 90.926,104.033 90.491,103.959 90.417 C 103.885 90.344,103.731 90.658,103.616 91.116 M276.753 91.094 C 277.010 92.243,277.189 92.492,277.183 91.693 C 277.180 91.363,277.035 90.883,276.861 90.625 C 276.629 90.283,276.600 90.409,276.753 91.094 M248.438 93.124 C 249.859 94.324,250.179 94.569,250.639 94.807 C 250.889 94.937,250.602 94.601,250.000 94.062 C 249.398 93.523,248.625 92.943,248.281 92.773 C 247.834 92.552,247.878 92.652,248.438 93.124 M131.485 95.529 C 130.153 96.499,129.117 97.346,129.182 97.412 C 129.306 97.535,131.961 95.679,133.399 94.463 C 134.867 93.222,133.960 93.727,131.485 95.529 M251.875 95.613 C 253.406 96.896,254.666 97.679,253.438 96.585 C 252.836 96.048,252.063 95.463,251.719 95.284 C 251.294 95.062,251.344 95.168,251.875 95.613 M267.500 96.467 C 267.500 96.984,270.079 100.330,271.428 101.563 C 272.255 102.318,272.106 102.076,270.947 100.781 C 270.024 99.750,268.871 98.281,268.385 97.517 C 267.898 96.753,267.500 96.280,267.500 96.467 M91.276 97.617 C 91.598 97.904,93.438 98.750,93.438 98.610 C 93.438 98.430,91.705 97.500,91.370 97.500 C 91.247 97.500,91.204 97.552,91.276 97.617 M127.344 98.640 C 126.403 99.481,126.332 99.598,127.059 99.112 C 127.923 98.534,129.009 97.482,128.710 97.512 C 128.646 97.518,128.031 98.026,127.344 98.640 M287.013 98.612 C 285.992 99.223,284.875 100.017,284.531 100.376 C 284.105 100.822,284.264 100.766,285.033 100.200 C 285.652 99.743,286.918 98.952,287.845 98.441 C 288.773 97.930,289.382 97.509,289.200 97.506 C 289.018 97.503,288.034 98.000,287.013 98.612 M109.864 100.557 C 108.491 102.112,108.356 102.332,109.344 101.406 C 110.514 100.309,112.095 98.419,111.818 98.448 C 111.763 98.453,110.884 99.403,109.864 100.557 M256.863 99.351 C 257.458 99.880,258.052 100.313,258.183 100.313 C 258.314 100.313,258.464 102.387,258.516 104.922 L 258.612 109.531 258.681 104.975 L 258.750 100.418 257.266 99.404 L 255.781 98.390 256.863 99.351 M93.886 99.030 C 94.002 99.218,94.388 99.527,94.743 99.717 C 95.205 99.964,95.328 99.965,95.177 99.720 C 95.060 99.532,94.675 99.223,94.320 99.033 C 93.858 98.786,93.734 98.785,93.886 99.030 M96.319 100.802 C 96.786 101.288,97.241 101.613,97.330 101.524 C 97.419 101.435,97.037 101.037,96.481 100.640 L 95.469 99.918 96.319 100.802 M103.794 100.938 C 103.794 101.195,103.915 101.688,104.063 102.031 C 104.232 102.425,104.331 102.483,104.331 102.188 C 104.331 101.930,104.210 101.438,104.063 101.094 C 103.893 100.700,103.794 100.642,103.794 100.938 M98.450 102.656 C 98.456 102.828,98.806 103.391,99.228 103.906 C 99.651 104.422,99.993 104.703,99.987 104.531 C 99.982 104.359,99.632 103.797,99.209 103.281 C 98.786 102.766,98.445 102.484,98.450 102.656 M106.836 103.214 C 106.059 103.870,105.070 106.111,105.408 106.450 C 105.495 106.536,105.663 106.165,105.781 105.624 C 105.900 105.083,106.420 104.159,106.937 103.571 C 108.022 102.336,107.994 102.238,106.836 103.214 M272.813 102.803 C 272.813 102.980,272.927 103.125,273.066 103.125 C 273.206 103.125,273.627 103.412,274.004 103.762 C 274.380 104.113,274.688 104.280,274.688 104.133 C 274.688 103.987,274.266 103.556,273.750 103.174 C 273.234 102.793,272.813 102.626,272.813 102.803 M281.152 103.776 C 280.668 104.449,280.335 105.000,280.411 105.000 C 280.627 105.000,282.265 102.786,282.141 102.662 C 282.081 102.602,281.635 103.103,281.152 103.776 M119.211 103.662 C 120.238 103.730,121.198 103.953,121.344 104.158 C 121.530 104.420,121.572 104.391,121.483 104.063 C 121.388 103.712,120.852 103.587,119.350 103.566 L 117.344 103.539 119.211 103.662 M259.267 103.672 C 259.187 103.801,259.777 103.865,260.577 103.815 C 263.056 103.659,263.366 103.524,261.347 103.480 C 260.282 103.457,259.347 103.543,259.267 103.672 M113.594 104.375 C 112.797 104.717,113.619 104.717,114.688 104.375 C 115.316 104.174,115.346 104.123,114.844 104.116 C 114.500 104.111,113.938 104.227,113.594 104.375 M120.804 105.491 C 120.689 105.949,120.655 106.384,120.729 106.458 C 120.802 106.531,120.956 106.217,121.071 105.759 C 121.186 105.301,121.220 104.866,121.146 104.792 C 121.073 104.719,120.919 105.033,120.804 105.491 M100.530 106.090 C 100.816 106.689,101.105 107.124,101.173 107.056 C 101.316 106.913,100.367 105.000,100.153 105.000 C 100.075 105.000,100.244 105.490,100.530 106.090 M270.447 106.094 C 271.446 106.695,272.352 107.184,272.460 107.180 C 272.778 107.167,269.278 105.000,268.939 105.000 C 268.769 105.000,269.448 105.492,270.447 106.094 M290.799 106.111 C 290.681 106.738,290.647 107.314,290.724 107.390 C 290.800 107.467,290.959 107.016,291.076 106.389 C 291.194 105.762,291.228 105.186,291.151 105.110 C 291.075 105.033,290.916 105.484,290.799 106.111 M109.526 106.138 C 107.931 107.195,107.369 107.753,108.614 107.042 C 109.711 106.417,111.173 105.330,110.932 105.319 C 110.843 105.316,110.210 105.684,109.526 106.138 M276.880 106.745 C 276.882 107.074,277.027 107.555,277.202 107.813 C 277.433 108.155,277.462 108.028,277.309 107.344 C 277.052 106.195,276.873 105.945,276.880 106.745 M103.304 107.366 C 103.189 107.824,103.155 108.259,103.229 108.333 C 103.302 108.406,103.456 108.092,103.571 107.634 C 103.686 107.176,103.720 106.741,103.646 106.667 C 103.573 106.594,103.419 106.908,103.304 107.366 M260.020 107.188 C 260.026 107.646,261.211 110.038,261.237 109.644 C 261.244 109.533,260.972 108.830,260.632 108.081 C 260.292 107.332,260.017 106.930,260.020 107.188 M279.099 107.843 C 278.907 108.393,278.760 108.998,278.772 109.187 C 278.784 109.376,278.996 108.981,279.242 108.309 C 279.488 107.636,279.635 107.031,279.569 106.964 C 279.502 106.898,279.290 107.293,279.099 107.843 M273.750 108.594 C 274.333 109.195,274.880 109.688,274.966 109.688 C 275.052 109.688,274.646 109.195,274.063 108.594 C 273.479 107.992,272.932 107.500,272.846 107.500 C 272.760 107.500,273.167 107.992,273.750 108.594 M106.527 108.672 C 105.532 109.772,104.888 110.625,105.052 110.625 C 105.122 110.625,105.709 109.992,106.356 109.219 C 107.646 107.675,107.762 107.307,106.527 108.672 M90.000 108.240 C 90.000 108.590,91.465 111.347,92.015 112.031 C 92.291 112.375,91.997 111.672,91.361 110.469 C 90.096 108.074,90.000 107.917,90.000 108.240 M102.849 109.115 C 102.829 109.402,102.732 109.894,102.633 110.209 C 102.462 110.751,102.471 110.752,102.810 110.225 C 103.006 109.918,103.104 109.426,103.026 109.131 C 102.899 108.647,102.881 108.645,102.849 109.115 M261.934 111.223 C 262.301 111.910,263.176 113.005,263.879 113.658 L 265.156 114.844 264.019 113.594 C 263.393 112.906,262.656 111.896,262.380 111.348 C 262.105 110.800,261.742 110.267,261.574 110.163 C 261.405 110.059,261.568 110.536,261.934 111.223 M289.226 110.603 C 289.112 110.961,288.647 111.710,288.193 112.267 C 287.479 113.142,287.465 113.196,288.090 112.657 C 288.873 111.982,289.828 110.349,289.583 110.104 C 289.500 110.021,289.339 110.246,289.226 110.603 M118.304 111.205 C 117.597 112.572,117.700 112.844,118.456 111.605 C 118.808 111.027,119.029 110.487,118.946 110.404 C 118.864 110.322,118.575 110.682,118.304 111.205 M276.286 110.878 C 276.266 111.103,276.108 111.199,275.935 111.092 C 275.762 110.985,275.797 111.285,276.013 111.759 C 276.429 112.672,276.757 112.133,276.465 111.016 C 276.387 110.715,276.306 110.653,276.286 110.878 M104.063 111.823 C 104.063 112.677,104.125 112.663,104.628 111.693 C 104.896 111.177,104.872 111.042,104.514 111.042 C 104.241 111.042,104.063 111.350,104.063 111.823 M87.817 113.359 C 87.821 113.785,87.881 113.813,88.091 113.482 C 88.264 113.208,88.622 113.133,89.102 113.268 C 89.674 113.430,89.736 113.403,89.375 113.150 C 88.642 112.637,87.812 112.749,87.817 113.359 M92.813 113.014 C 92.813 113.183,93.270 113.734,93.828 114.238 L 94.844 115.156 93.906 114.064 C 93.391 113.463,92.934 112.913,92.891 112.840 C 92.848 112.768,92.813 112.846,92.813 113.014 M116.233 113.984 L 115.156 115.156 116.328 114.079 C 116.973 113.487,117.500 112.960,117.500 112.907 C 117.500 112.669,117.236 112.894,116.233 113.984 M290.156 113.587 C 288.224 114.497,288.472 114.606,290.498 113.738 C 291.316 113.387,292.178 113.174,292.415 113.265 C 292.651 113.356,292.759 113.291,292.654 113.121 C 292.377 112.674,291.910 112.761,290.156 113.587 M90.026 113.555 C 90.346 113.845,92.813 114.996,92.813 114.856 C 92.813 114.679,90.454 113.438,90.117 113.438 C 89.995 113.438,89.954 113.491,90.026 113.555 M286.094 114.423 C 285.578 114.928,284.534 115.757,283.775 116.264 C 283.015 116.772,282.537 117.188,282.712 117.188 C 283.072 117.188,287.035 114.249,287.340 113.757 C 287.720 113.141,287.022 113.514,286.094 114.423 M135.547 114.283 C 135.934 114.358,136.566 114.358,136.953 114.283 C 137.340 114.209,137.023 114.148,136.250 114.148 C 135.477 114.148,135.160 114.209,135.547 114.283 M143.672 114.296 C 145.777 114.350,149.223 114.350,151.328 114.296 C 153.434 114.242,151.711 114.198,147.500 114.198 C 143.289 114.198,141.566 114.242,143.672 114.296 M180.707 114.287 C 181.182 114.359,181.886 114.357,182.270 114.282 C 182.654 114.208,182.266 114.150,181.406 114.152 C 180.547 114.154,180.232 114.215,180.707 114.287 M188.672 114.296 C 190.777 114.350,194.223 114.350,196.328 114.296 C 198.434 114.242,196.711 114.198,192.500 114.198 C 188.289 114.198,186.566 114.242,188.672 114.296 M233.672 114.296 C 235.777 114.350,239.223 114.350,241.328 114.296 C 243.434 114.242,241.711 114.198,237.500 114.198 C 233.289 114.198,231.566 114.242,233.672 114.296 M286.780 115.306 C 285.973 115.817,285.313 116.304,285.313 116.386 C 285.313 116.469,286.016 116.100,286.875 115.565 C 288.253 114.709,288.664 114.375,288.342 114.375 C 288.290 114.375,287.587 114.794,286.780 115.306 M87.600 116.563 C 87.600 117.680,87.657 118.137,87.726 117.578 C 87.795 117.020,87.795 116.105,87.726 115.547 C 87.657 114.988,87.600 115.445,87.600 116.563 M93.556 115.409 C 95.060 116.363,97.427 118.476,98.216 119.571 C 99.964 121.995,100.084 122.135,99.659 121.250 C 98.764 119.387,94.209 114.956,93.252 115.018 C 93.096 115.028,93.233 115.204,93.556 115.409 M95.076 115.182 C 95.178 115.347,95.930 115.963,96.748 116.550 C 97.565 117.137,98.151 117.483,98.049 117.318 C 97.947 117.153,97.195 116.537,96.377 115.950 C 95.560 115.363,94.974 115.017,95.076 115.182 M265.938 115.597 C 266.785 116.328,269.063 117.610,269.063 117.356 C 269.063 117.271,268.535 116.916,267.891 116.568 C 267.246 116.220,266.367 115.708,265.938 115.430 L 265.156 114.923 265.938 115.597 M292.898 116.250 C 292.898 117.023,292.959 117.340,293.033 116.953 C 293.108 116.566,293.108 115.934,293.033 115.547 C 292.959 115.160,292.898 115.477,292.898 116.250 M114.216 115.630 C 114.108 115.805,113.361 116.290,112.557 116.709 C 111.752 117.128,111.234 117.476,111.406 117.483 C 111.773 117.496,115.000 115.682,115.000 115.462 C 115.000 115.184,114.414 115.310,114.216 115.630 M118.965 117.098 C 119.341 117.168,119.714 117.430,119.793 117.681 C 119.884 117.970,119.918 117.935,119.887 117.584 C 119.856 117.226,119.565 117.021,119.060 117.001 C 118.418 116.976,118.402 116.993,118.965 117.098 M247.288 118.750 C 247.288 119.867,247.344 120.324,247.414 119.766 C 247.483 119.207,247.483 118.293,247.414 117.734 C 247.344 117.176,247.288 117.633,247.288 118.750 M260.733 117.357 C 260.631 117.622,260.635 117.927,260.743 118.034 C 260.850 118.141,260.938 118.004,260.938 117.729 C 260.938 117.423,261.272 117.178,261.797 117.099 L 262.656 116.969 261.787 116.922 C 261.259 116.893,260.845 117.064,260.733 117.357 M100.065 118.326 C 100.530 118.630,100.968 119.166,101.038 119.517 C 101.136 120.012,101.175 119.970,101.207 119.333 C 101.235 118.805,101.054 118.441,100.703 118.317 C 100.402 118.211,99.945 118.045,99.688 117.949 C 99.430 117.852,99.599 118.022,100.065 118.326 M108.281 118.125 C 107.485 118.467,108.307 118.467,109.375 118.125 C 110.003 117.924,110.034 117.873,109.531 117.866 C 109.188 117.861,108.625 117.977,108.281 118.125 M269.524 119.027 C 270.552 119.541,271.429 119.925,271.474 119.880 C 271.612 119.742,269.266 118.522,268.438 118.300 C 268.008 118.185,268.497 118.512,269.524 119.027 M105.547 118.658 C 105.934 118.733,106.566 118.733,106.953 118.658 C 107.340 118.584,107.023 118.523,106.250 118.523 C 105.477 118.523,105.160 118.584,105.547 118.658 M110.547 118.929 C 109.335 119.586,109.472 119.813,110.703 119.187 C 111.881 118.588,112.090 118.433,111.693 118.450 C 111.535 118.457,111.020 118.672,110.547 118.929 M273.516 118.653 C 273.816 118.732,274.309 118.732,274.609 118.653 C 274.910 118.574,274.664 118.510,274.063 118.510 C 273.461 118.510,273.215 118.574,273.516 118.653 M281.365 120.631 C 280.908 121.322,280.589 121.940,280.657 122.005 C 280.726 122.069,281.163 121.504,281.629 120.748 C 282.690 119.028,282.486 118.938,281.365 120.631 M271.875 120.101 C 271.875 120.185,272.613 120.864,273.516 121.609 C 274.418 122.354,274.959 122.713,274.718 122.407 C 274.213 121.768,271.875 119.871,271.875 120.101 M100.667 121.875 C 100.629 122.909,100.535 123.157,100.313 122.813 C 100.146 122.555,100.010 122.484,100.010 122.656 C 100.010 122.828,100.138 123.172,100.296 123.421 C 100.673 124.017,101.044 122.647,100.852 121.366 C 100.757 120.723,100.704 120.868,100.667 121.875 M138.514 147.090 L 138.438 173.710 137.422 173.836 L 136.406 173.962 137.432 174.012 C 138.852 174.082,138.764 176.014,138.673 146.875 L 138.590 120.469 138.514 147.090 M154.139 147.266 L 154.063 174.063 155.234 174.012 C 156.386 173.963,156.388 173.960,155.392 173.837 L 154.379 173.711 154.297 147.090 L 154.215 120.469 154.139 147.266 M184.139 147.090 L 184.063 173.710 183.047 173.808 C 182.215 173.889,182.022 174.048,181.980 174.688 C 181.935 175.376,181.947 175.385,182.080 174.766 C 182.195 174.229,182.450 174.063,183.157 174.063 C 184.461 174.063,184.388 175.795,184.298 146.875 L 184.215 120.469 184.139 147.090 M229.764 147.091 L 229.688 173.712 228.516 173.835 L 227.344 173.957 228.525 174.010 C 230.129 174.081,230.015 176.302,229.923 146.875 L 229.840 120.469 229.764 147.091 M245.154 147.266 L 245.156 173.906 246.172 174.004 L 247.188 174.102 247.188 176.109 L 247.188 178.116 237.266 178.203 L 227.344 178.290 237.422 178.364 L 247.500 178.438 247.500 176.094 L 247.500 173.750 246.408 173.750 L 245.316 173.750 245.233 147.187 L 245.151 120.625 245.154 147.266 M106.609 121.751 C 106.377 122.014,106.249 122.291,106.325 122.366 C 106.400 122.442,106.717 122.222,107.030 121.877 C 107.342 121.532,107.470 121.255,107.314 121.262 C 107.159 121.268,106.841 121.489,106.609 121.751 M117.865 123.734 C 117.682 124.258,117.599 124.688,117.680 124.688 C 117.891 124.688,118.481 123.064,118.326 122.909 C 118.255 122.839,118.048 123.210,117.865 123.734 M278.198 124.063 C 278.198 124.664,278.262 124.910,278.340 124.609 C 278.419 124.309,278.419 123.816,278.340 123.516 C 278.262 123.215,278.198 123.461,278.198 124.063 M262.508 123.906 C 262.515 124.266,264.670 127.768,264.680 127.438 C 264.684 127.317,264.196 126.403,263.595 125.406 C 262.993 124.409,262.504 123.734,262.508 123.906 M103.759 125.703 C 103.004 127.020,102.452 128.379,102.914 127.786 C 103.286 127.309,104.976 124.063,104.853 124.063 C 104.769 124.063,104.277 124.801,103.759 125.703 M116.581 126.133 C 116.213 126.756,115.963 127.317,116.025 127.380 C 116.088 127.442,116.454 126.932,116.839 126.247 C 117.715 124.689,117.490 124.591,116.581 126.133 M276.678 125.859 C 276.967 126.418,277.257 126.875,277.323 126.875 C 277.608 126.875,277.075 125.608,276.637 125.245 C 276.228 124.906,276.235 125.001,276.678 125.859 M290.218 126.230 C 289.456 127.519,289.572 127.852,290.357 126.628 C 290.719 126.062,290.955 125.539,290.882 125.465 C 290.808 125.392,290.510 125.736,290.218 126.230 M91.251 127.673 C 91.251 127.854,91.742 128.479,92.344 129.063 C 93.758 130.434,93.759 130.073,92.345 128.533 C 91.745 127.879,91.252 127.492,91.251 127.673 M114.375 128.854 C 113.773 129.539,113.563 129.923,113.906 129.707 C 114.552 129.302,115.770 127.832,115.578 127.689 C 115.518 127.645,114.977 128.169,114.375 128.854 M278.392 128.438 C 278.199 129.530,278.279 129.950,278.616 129.613 C 278.714 129.515,278.747 128.965,278.690 128.389 L 278.585 127.344 278.392 128.438 M288.395 128.470 C 287.943 128.968,287.672 129.375,287.794 129.375 C 288.100 129.375,289.513 127.845,289.350 127.690 C 289.278 127.621,288.848 127.972,288.395 128.470 M265.938 128.906 C 266.521 129.508,267.068 130.000,267.154 130.000 C 267.240 130.000,266.833 129.508,266.250 128.906 C 265.667 128.305,265.120 127.813,265.034 127.813 C 264.948 127.813,265.354 128.305,265.938 128.906 M288.906 130.647 C 288.219 130.978,287.999 131.161,288.417 131.054 C 289.561 130.760,291.161 130.023,290.625 130.035 C 290.367 130.041,289.594 130.317,288.906 130.647 M263.438 130.611 C 263.695 130.785,264.176 130.930,264.505 130.933 C 265.305 130.939,265.055 130.760,263.906 130.503 C 263.222 130.350,263.095 130.379,263.438 130.611 M94.858 130.960 C 95.060 131.288,97.500 132.596,97.500 132.377 C 97.500 132.302,96.864 131.885,96.086 131.451 C 95.309 131.016,94.756 130.795,94.858 130.960 M113.125 131.719 C 112.104 132.302,112.462 132.309,113.792 131.731 C 114.371 131.480,114.633 131.274,114.375 131.273 C 114.117 131.273,113.555 131.473,113.125 131.719 M266.875 131.719 C 267.305 131.964,267.797 132.165,267.969 132.165 C 268.141 132.165,267.930 131.964,267.500 131.719 C 267.070 131.473,266.578 131.272,266.406 131.272 C 266.234 131.272,266.445 131.473,266.875 131.719 M286.484 131.741 C 285.316 132.375,285.387 132.639,286.563 132.031 C 287.078 131.765,287.500 131.480,287.500 131.398 C 287.500 131.197,287.466 131.208,286.484 131.741 M95.313 132.586 C 95.313 132.646,95.770 133.030,96.328 133.438 C 96.957 133.899,97.175 133.974,96.901 133.636 C 96.485 133.124,95.313 132.349,95.313 132.586 M97.839 132.623 C 98.104 132.875,100.313 133.713,100.313 133.562 C 100.313 133.476,99.825 133.202,99.229 132.953 C 98.179 132.514,97.571 132.370,97.839 132.623 M106.425 132.851 C 105.747 133.010,105.115 133.219,105.019 133.317 C 104.767 133.571,107.254 133.095,107.813 132.782 C 108.390 132.458,108.025 132.476,106.425 132.851 M110.335 133.155 C 108.891 134.036,106.055 136.977,105.455 138.215 C 104.924 139.313,104.982 139.250,106.784 136.766 C 107.566 135.686,109.562 133.918,111.138 132.909 C 112.151 132.260,111.453 132.474,110.335 133.155 M280.703 133.194 C 280.225 133.425,280.010 133.793,280.031 134.345 C 280.062 135.142,280.066 135.144,280.267 134.427 C 280.380 134.026,280.823 133.503,281.252 133.266 C 282.169 132.759,281.726 132.700,280.703 133.194 M102.578 133.653 C 102.879 133.732,103.371 133.732,103.672 133.653 C 103.973 133.574,103.727 133.510,103.125 133.510 C 102.523 133.510,102.277 133.574,102.578 133.653 M271.956 134.728 C 272.774 135.479,273.793 136.578,274.221 137.170 C 274.650 137.762,275.000 138.134,275.000 137.996 C 275.000 137.506,273.074 135.326,271.782 134.352 C 270.498 133.385,270.502 133.393,271.956 134.728 M276.953 133.653 C 277.254 133.732,277.746 133.732,278.047 133.653 C 278.348 133.574,278.102 133.510,277.500 133.510 C 276.898 133.510,276.652 133.574,276.953 133.653 M98.438 135.258 C 98.438 135.400,98.814 135.857,99.274 136.274 L 100.111 137.031 99.409 136.016 C 98.701 134.991,98.438 134.785,98.438 135.258 M281.411 135.850 L 280.862 136.719 281.586 136.024 C 281.983 135.642,282.230 135.251,282.134 135.155 C 282.038 135.059,281.713 135.372,281.411 135.850 M291.773 138.602 C 291.657 138.941,291.477 139.430,291.374 139.688 C 291.270 139.945,291.421 139.836,291.710 139.445 C 291.998 139.054,292.178 138.565,292.109 138.359 C 292.039 138.149,291.892 138.255,291.773 138.602 M275.886 140.474 C 276.322 141.582,276.727 142.439,276.788 142.379 C 276.947 142.220,275.629 138.789,275.340 138.611 C 275.205 138.527,275.451 139.366,275.886 140.474 M262.813 138.954 C 262.813 139.567,265.232 142.970,266.443 144.061 L 267.656 145.153 266.347 143.749 C 265.627 142.976,264.537 141.508,263.925 140.487 C 263.313 139.466,262.813 138.776,262.813 138.954 M89.280 140.152 C 89.566 140.752,89.855 141.187,89.923 141.119 C 90.066 140.976,89.117 139.063,88.903 139.063 C 88.825 139.063,88.994 139.553,89.280 140.152 M116.448 140.931 C 115.995 141.615,115.625 142.279,115.625 142.407 C 115.625 142.534,115.814 142.362,116.046 142.023 C 117.064 140.532,117.561 139.688,117.421 139.688 C 117.338 139.688,116.900 140.247,116.448 140.931 M290.480 141.121 C 290.188 141.565,290.004 141.983,290.070 142.049 C 290.135 142.114,290.436 141.751,290.737 141.240 C 291.411 140.100,291.210 140.007,290.480 141.121 M91.094 142.813 C 91.765 143.500,92.385 144.063,92.471 144.063 C 92.557 144.063,92.078 143.500,91.406 142.813 C 90.735 142.125,90.115 141.563,90.029 141.563 C 89.943 141.563,90.422 142.125,91.094 142.813 M288.421 143.643 C 287.567 144.549,287.516 144.662,288.173 144.190 C 288.890 143.674,289.879 142.500,289.595 142.500 C 289.542 142.500,289.013 143.014,288.421 143.643 M114.046 143.984 L 112.969 145.156 114.141 144.079 C 114.785 143.487,115.313 142.960,115.313 142.907 C 115.313 142.669,115.048 142.894,114.046 143.984 M103.304 143.929 C 103.189 144.387,103.155 144.822,103.229 144.895 C 103.302 144.969,103.456 144.654,103.571 144.196 C 103.686 143.738,103.720 143.303,103.646 143.230 C 103.573 143.156,103.419 143.471,103.304 143.929 M119.375 144.375 C 117.941 145.160,118.321 145.164,120.044 144.382 C 120.793 144.042,121.195 143.767,120.938 143.770 C 120.680 143.773,119.977 144.046,119.375 144.375 M260.938 144.531 C 261.367 144.777,261.859 144.978,262.031 144.978 C 262.203 144.978,261.992 144.777,261.563 144.531 C 261.133 144.286,260.641 144.085,260.469 144.085 C 260.297 144.085,260.508 144.286,260.938 144.531 M93.919 145.334 C 94.146 145.701,96.870 147.300,97.009 147.147 C 97.067 147.083,96.356 146.585,95.429 146.040 C 94.502 145.496,93.823 145.178,93.919 145.334 M111.481 145.742 C 109.980 146.665,109.561 147.101,110.781 146.470 C 111.761 145.963,113.082 145.020,112.813 145.020 C 112.727 145.020,112.128 145.345,111.481 145.742 M268.281 145.474 C 268.625 145.754,269.188 146.121,269.531 146.290 L 270.156 146.597 269.531 146.088 C 269.188 145.808,268.625 145.441,268.281 145.272 L 267.656 144.966 268.281 145.474 M116.016 146.281 C 115.285 146.798,114.688 147.291,114.688 147.376 C 114.688 147.461,115.320 147.095,116.094 146.563 C 116.867 146.030,117.500 145.531,117.500 145.454 C 117.500 145.239,117.441 145.272,116.016 146.281 M264.814 146.689 C 265.314 147.135,265.788 147.500,265.868 147.500 C 266.175 147.500,265.177 146.513,264.557 146.203 C 264.123 145.986,264.208 146.148,264.814 146.689 M270.938 147.031 C 271.367 147.277,271.859 147.478,272.031 147.478 C 272.203 147.478,271.992 147.277,271.563 147.031 C 271.133 146.786,270.641 146.585,270.469 146.585 C 270.297 146.585,270.508 146.786,270.938 147.031 M283.438 147.031 C 283.008 147.277,282.797 147.478,282.969 147.478 C 283.141 147.478,283.633 147.277,284.063 147.031 C 284.492 146.786,284.703 146.585,284.531 146.585 C 284.359 146.585,283.867 146.786,283.438 147.031 M113.258 148.518 L 112.344 149.529 113.281 148.749 C 113.797 148.320,114.277 147.934,114.349 147.891 C 114.421 147.848,114.410 147.744,114.326 147.660 C 114.242 147.575,113.762 147.962,113.258 148.518 M121.663 149.375 C 121.663 150.492,121.719 150.949,121.789 150.391 C 121.858 149.832,121.858 148.918,121.789 148.359 C 121.719 147.801,121.663 148.258,121.663 149.375 M258.844 149.063 C 258.844 150.008,258.902 150.395,258.974 149.922 C 259.045 149.449,259.045 148.676,258.974 148.203 C 258.902 147.730,258.844 148.117,258.844 149.063 M267.195 148.672 C 267.764 149.402,268.304 149.925,268.396 149.833 C 268.488 149.742,268.022 149.144,267.361 148.505 L 266.160 147.344 267.195 148.672 M105.892 147.962 C 105.810 148.044,105.400 148.163,104.981 148.227 C 104.528 148.296,104.180 148.584,104.124 148.937 C 104.059 149.342,104.114 149.409,104.295 149.146 C 104.442 148.934,105.117 148.557,105.796 148.309 C 106.476 148.060,106.809 147.847,106.536 147.835 C 106.264 147.822,105.975 147.880,105.892 147.962 M280.156 148.124 C 279.813 148.272,279.145 148.476,278.672 148.577 C 278.037 148.714,277.818 148.944,277.832 149.459 L 277.852 150.156 278.135 149.453 C 278.290 149.066,278.687 148.750,279.017 148.750 C 279.346 148.750,280.089 148.545,280.667 148.293 C 281.246 148.042,281.508 147.841,281.250 147.846 C 280.992 147.851,280.500 147.976,280.156 148.124 M93.047 150.846 C 93.434 150.920,94.066 150.920,94.453 150.846 C 94.840 150.771,94.523 150.710,93.750 150.710 C 92.977 150.710,92.660 150.771,93.047 150.846 M286.016 150.840 C 286.316 150.919,286.809 150.919,287.109 150.840 C 287.410 150.762,287.164 150.698,286.563 150.698 C 285.961 150.698,285.715 150.762,286.016 150.840 M98.125 151.822 C 98.383 151.982,98.945 152.206,99.375 152.321 C 99.918 152.466,100.013 152.442,99.688 152.240 C 99.430 152.081,98.867 151.857,98.438 151.742 C 97.895 151.596,97.799 151.621,98.125 151.822 M270.492 153.438 C 270.607 153.867,270.831 154.430,270.990 154.688 C 271.192 155.013,271.216 154.918,271.071 154.375 C 270.956 153.945,270.732 153.383,270.572 153.125 C 270.371 152.799,270.346 152.895,270.492 153.438 M278.503 153.482 C 277.937 153.844,277.534 154.200,277.607 154.273 C 277.680 154.346,278.268 154.047,278.913 153.609 C 280.322 152.653,279.968 152.543,278.503 153.482 M276.644 154.219 C 276.460 154.820,276.418 155.313,276.553 155.313 C 276.799 155.313,277.282 153.428,277.086 153.232 C 277.027 153.173,276.829 153.618,276.644 154.219 M90.647 154.531 C 90.647 154.703,90.848 155.195,91.094 155.625 C 91.339 156.055,91.540 156.266,91.540 156.094 C 91.540 155.922,91.339 155.430,91.094 155.000 C 90.848 154.570,90.647 154.359,90.647 154.531 M105.673 154.688 C 105.673 154.945,105.862 155.648,106.094 156.250 C 106.325 156.852,106.515 157.133,106.515 156.875 C 106.515 156.617,106.325 155.914,106.094 155.313 C 105.862 154.711,105.673 154.430,105.673 154.688 M120.363 155.795 C 119.840 156.944,119.940 157.189,120.506 156.144 C 120.770 155.656,120.928 155.199,120.856 155.127 C 120.785 155.056,120.563 155.356,120.363 155.795 M288.610 156.953 C 287.975 158.209,287.928 158.410,288.412 157.813 C 288.990 157.098,289.801 155.313,289.548 155.313 C 289.489 155.313,289.067 156.051,288.610 156.953 M124.567 157.028 C 123.728 157.609,122.884 158.254,122.692 158.461 C 122.501 158.668,123.206 158.262,124.259 157.558 C 125.312 156.854,126.261 156.366,126.368 156.472 C 126.475 156.579,126.563 156.503,126.563 156.302 C 126.563 155.754,126.239 155.872,124.567 157.028 M254.212 156.261 C 254.104 156.435,254.132 156.545,254.274 156.504 C 254.415 156.463,254.848 156.605,255.234 156.820 C 256.176 157.342,256.132 157.074,255.173 156.446 C 254.689 156.129,254.336 156.061,254.212 156.261 M261.518 158.672 C 261.910 159.230,262.296 159.688,262.376 159.688 C 262.646 159.688,261.914 158.547,261.357 158.099 C 260.966 157.785,261.013 157.951,261.518 158.672 M92.747 158.906 C 92.925 159.250,93.540 159.953,94.114 160.468 L 95.156 161.405 94.063 160.156 C 93.462 159.468,92.847 158.766,92.697 158.594 C 92.547 158.422,92.569 158.563,92.747 158.906 M258.132 159.141 C 259.574 160.438,260.168 160.738,259.005 159.582 C 258.372 158.953,257.741 158.438,257.602 158.438 C 257.464 158.438,257.702 158.754,258.132 159.141 M121.052 160.078 C 119.839 161.381,117.957 164.304,117.681 165.313 C 117.564 165.742,117.827 165.417,118.265 164.589 C 119.318 162.600,120.506 160.976,121.677 159.922 C 122.203 159.449,122.490 159.063,122.315 159.063 C 122.140 159.063,121.572 159.520,121.052 160.078 M285.625 161.028 C 284.680 161.930,283.555 162.918,283.125 163.223 C 282.695 163.529,282.906 163.470,283.594 163.093 C 284.601 162.540,287.921 159.358,287.466 159.381 C 287.399 159.385,286.570 160.126,285.625 161.028 M262.872 160.286 C 262.944 160.529,263.487 161.073,264.080 161.495 C 264.886 162.070,264.960 162.091,264.375 161.580 C 263.945 161.204,263.402 160.660,263.167 160.370 C 262.881 160.017,262.784 159.990,262.872 160.286 M107.835 160.781 C 107.835 160.953,108.036 161.445,108.281 161.875 C 108.527 162.305,108.728 162.516,108.728 162.344 C 108.728 162.172,108.527 161.680,108.281 161.250 C 108.036 160.820,107.835 160.609,107.835 160.781 M116.094 161.611 C 115.454 162.260,115.356 162.462,115.785 162.247 C 116.524 161.878,117.725 160.617,117.314 160.643 C 117.159 160.653,116.609 161.089,116.094 161.611 M261.094 162.503 C 262.552 164.674,262.799 164.897,261.862 163.196 C 261.458 162.461,260.860 161.619,260.534 161.324 C 260.208 161.029,260.460 161.560,261.094 162.503 M95.938 162.344 C 96.520 162.773,97.075 163.124,97.170 163.123 C 97.465 163.121,95.487 161.586,95.174 161.574 C 95.011 161.568,95.355 161.914,95.938 162.344 M113.516 163.434 C 112.957 163.775,112.500 164.137,112.500 164.240 C 112.500 164.387,114.380 163.380,114.974 162.914 C 115.464 162.531,114.341 162.931,113.516 163.434 M98.239 163.908 C 99.379 164.503,99.668 164.506,98.888 163.916 C 98.554 163.664,98.070 163.454,97.813 163.449 C 97.555 163.445,97.747 163.651,98.239 163.908 M110.161 165.305 C 110.057 165.473,110.184 166.000,110.442 166.477 C 110.701 166.954,110.918 167.229,110.925 167.089 C 110.932 166.949,110.782 166.544,110.593 166.190 C 110.328 165.695,110.346 165.483,110.671 165.278 C 110.955 165.098,110.971 165.008,110.722 165.005 C 110.517 165.002,110.265 165.137,110.161 165.305 M105.547 165.846 C 105.934 165.920,106.566 165.920,106.953 165.846 C 107.340 165.771,107.023 165.710,106.250 165.710 C 105.477 165.710,105.160 165.771,105.547 165.846 M108.216 166.073 C 108.518 166.375,108.976 167.030,109.234 167.530 C 109.492 168.029,109.785 168.438,109.884 168.438 C 110.217 168.438,108.513 165.806,108.088 165.665 C 107.833 165.580,107.883 165.740,108.216 166.073 M271.869 166.328 C 271.568 166.950,271.578 166.970,271.958 166.502 C 272.250 166.142,272.982 165.935,274.241 165.858 L 276.094 165.743 274.152 165.684 C 272.417 165.631,272.173 165.700,271.869 166.328 M101.484 167.721 C 101.871 167.795,102.504 167.795,102.891 167.721 C 103.277 167.646,102.961 167.585,102.188 167.585 C 101.414 167.585,101.098 167.646,101.484 167.721 M277.734 167.721 C 278.121 167.795,278.754 167.795,279.141 167.721 C 279.527 167.646,279.211 167.585,278.438 167.585 C 277.664 167.585,277.348 167.646,277.734 167.721 M268.312 169.373 C 267.844 170.234,267.528 170.938,267.610 170.938 C 267.819 170.938,269.409 168.054,269.274 167.920 C 269.213 167.859,268.780 168.513,268.312 169.373 M270.469 168.750 C 269.914 169.822,270.253 169.967,271.563 169.219 C 272.452 168.710,272.153 168.579,271.229 169.073 C 270.546 169.439,270.482 169.289,270.948 168.417 C 271.126 168.085,271.200 167.813,271.113 167.813 C 271.025 167.813,270.735 168.234,270.469 168.750 M106.875 168.350 C 107.133 168.446,108.012 168.785,108.828 169.102 C 109.645 169.419,110.311 169.575,110.310 169.449 C 110.308 169.215,107.214 168.105,106.692 168.150 C 106.535 168.163,106.617 168.253,106.875 168.350 M283.216 168.343 C 283.618 168.447,283.724 168.679,283.592 169.166 C 283.430 169.761,283.449 169.777,283.752 169.294 C 284.167 168.632,283.907 168.112,283.185 168.161 C 282.722 168.193,282.726 168.215,283.216 168.343 M112.501 170.187 C 112.500 170.625,114.201 172.986,114.745 173.300 C 114.971 173.431,114.855 173.199,114.486 172.785 C 114.117 172.370,113.520 171.539,113.159 170.938 C 112.798 170.336,112.502 169.998,112.501 170.187 M126.626 171.335 C 126.252 172.062,125.699 173.008,125.398 173.438 C 124.968 174.052,124.956 174.136,125.342 173.834 C 125.897 173.397,127.630 170.339,127.434 170.142 C 127.363 170.071,126.999 170.608,126.626 171.335 M97.969 171.563 C 98.235 172.078,98.524 172.500,98.610 172.500 C 98.696 172.500,98.548 172.078,98.281 171.563 C 98.015 171.047,97.726 170.625,97.640 170.625 C 97.554 170.625,97.702 171.047,97.969 171.563 M253.439 170.807 C 253.440 171.158,254.620 173.125,254.829 173.125 C 254.911 173.125,254.677 172.598,254.308 171.953 C 253.482 170.510,253.437 170.451,253.439 170.807 M266.427 172.422 C 265.752 173.285,265.697 173.430,266.221 172.972 C 266.848 172.425,267.674 171.250,267.433 171.250 C 267.384 171.250,266.931 171.777,266.427 172.422 M199.688 173.813 C 199.688 173.950,200.180 174.063,200.781 174.063 C 201.383 174.063,201.875 174.008,201.875 173.940 C 201.875 173.873,201.383 173.761,200.781 173.691 C 200.180 173.620,199.688 173.675,199.688 173.813 M255.247 173.906 C 255.429 174.250,256.323 175.234,257.233 176.094 L 258.887 177.656 257.038 175.625 C 256.021 174.508,255.127 173.523,255.052 173.438 C 254.977 173.352,255.064 173.563,255.247 173.906 M116.120 175.447 C 117.196 177.067,118.310 178.033,117.914 177.002 C 117.816 176.745,117.660 176.611,117.567 176.704 C 117.474 176.797,116.925 176.170,116.347 175.311 C 115.769 174.453,115.228 173.750,115.145 173.750 C 115.062 173.750,115.501 174.514,116.120 175.447 M123.270 176.016 L 121.719 177.656 123.359 176.105 C 124.262 175.253,125.000 174.514,125.000 174.465 C 125.000 174.232,124.710 174.491,123.270 176.016 M100.625 175.189 C 100.625 175.361,101.152 175.987,101.796 176.579 L 102.967 177.656 102.033 176.563 C 101.519 175.961,100.992 175.335,100.862 175.172 C 100.715 174.987,100.625 174.994,100.625 175.189 M263.434 176.507 C 262.279 178.214,262.283 178.476,263.440 176.939 C 263.996 176.200,264.397 175.542,264.331 175.477 C 264.265 175.411,263.861 175.874,263.434 176.507 M278.456 176.401 C 277.864 176.981,276.529 177.974,275.487 178.608 C 274.446 179.241,273.875 179.666,274.219 179.552 C 275.384 179.165,278.133 177.365,279.130 176.336 C 280.440 174.985,279.840 175.042,278.456 176.401 M103.594 177.986 C 104.358 178.598,106.585 179.769,106.722 179.631 C 106.777 179.576,105.955 179.071,104.895 178.509 C 103.836 177.946,103.250 177.711,103.594 177.986 M120.348 178.395 C 119.719 178.916,119.360 179.452,119.464 179.715 C 119.613 180.092,119.642 180.092,119.663 179.710 C 119.676 179.465,120.145 178.873,120.703 178.395 C 121.262 177.917,121.648 177.523,121.563 177.521 C 121.477 177.519,120.930 177.912,120.348 178.395 M259.883 178.370 C 260.420 178.879,260.921 179.483,260.997 179.711 C 261.087 179.981,261.207 180.010,261.340 179.795 C 261.452 179.613,260.950 179.010,260.225 178.454 C 258.966 177.489,258.950 177.485,259.883 178.370 M182.145 178.208 C 182.276 178.339,186.805 178.409,192.208 178.364 L 202.031 178.281 191.968 178.125 C 186.434 178.039,182.013 178.076,182.145 178.208 M141.504 178.359 C 144.308 178.411,148.808 178.411,151.504 178.359 C 154.200 178.307,151.906 178.264,146.406 178.264 C 140.906 178.265,138.700 178.307,141.504 178.359 M117.344 180.304 C 117.688 180.450,118.879 181.495,119.991 182.628 C 121.103 183.761,122.112 184.688,122.234 184.688 C 122.355 184.688,121.379 183.633,120.065 182.344 C 118.750 181.055,117.460 180.009,117.197 180.020 C 116.869 180.033,116.915 180.123,117.344 180.304 M128.436 183.829 C 128.287 187.658,128.306 187.813,128.906 187.808 C 129.321 187.805,129.403 187.722,129.151 187.561 C 128.896 187.399,128.741 186.089,128.681 183.582 L 128.591 179.844 128.436 183.829 M160.078 180.234 C 177.051 180.279,204.824 180.279,221.797 180.234 C 238.770 180.190,224.883 180.153,190.938 180.153 C 156.992 180.153,143.105 180.190,160.078 180.234 M120.938 181.406 C 121.521 182.008,122.068 182.500,122.154 182.500 C 122.240 182.500,121.833 182.008,121.250 181.406 C 120.667 180.805,120.120 180.313,120.034 180.313 C 119.948 180.313,120.354 180.805,120.938 181.406 M261.387 181.641 L 260.469 182.656 261.484 181.738 C 262.043 181.234,262.500 180.777,262.500 180.723 C 262.500 180.481,262.242 180.694,261.387 181.641 M256.563 183.789 C 255.718 184.551,255.531 184.811,256.094 184.438 C 256.958 183.866,258.388 182.488,258.095 182.509 C 258.026 182.514,257.336 183.090,256.563 183.789 M123.335 183.523 C 124.968 184.837,125.480 185.082,124.219 183.947 C 123.531 183.328,122.852 182.820,122.710 182.817 C 122.568 182.815,122.850 183.132,123.335 183.523 M258.906 183.937 C 257.947 184.792,257.881 184.904,258.622 184.416 C 259.493 183.841,260.563 182.806,260.273 182.817 C 260.209 182.820,259.594 183.324,258.906 183.937 M123.594 185.739 C 124.727 186.724,125.764 186.705,125.823 185.698 C 125.857 185.109,125.841 185.096,125.723 185.620 C 125.544 186.418,125.193 186.412,123.787 185.587 L 122.656 184.924 123.594 185.739 M254.730 185.557 C 254.670 186.566,255.449 186.737,256.638 185.975 C 257.198 185.616,257.516 185.325,257.344 185.328 C 257.172 185.330,256.758 185.539,256.425 185.791 C 255.565 186.441,255.065 186.361,254.908 185.547 L 254.773 184.844 254.730 185.557 M258.436 191.343 L 258.591 195.156 258.681 191.589 C 258.731 189.627,258.661 187.911,258.526 187.775 C 258.392 187.640,258.351 189.245,258.436 191.343 M156.353 194.922 C 175.058 194.966,205.574 194.966,224.166 194.922 C 242.757 194.877,227.453 194.841,190.156 194.841 C 152.859 194.841,137.648 194.877,156.353 194.922 M182.188 214.467 L 182.969 214.863 182.969 221.494 C 182.969 225.141,183.074 228.125,183.203 228.125 C 183.332 228.125,183.438 225.194,183.438 221.611 C 183.438 214.737,183.293 214.052,181.850 214.067 C 181.606 214.070,181.758 214.250,182.188 214.467 M190.398 216.250 C 190.398 217.023,190.459 217.340,190.533 216.953 C 190.608 216.566,190.608 215.934,190.533 215.547 C 190.459 215.160,190.398 215.477,190.398 216.250 M192.308 218.750 C 192.308 220.898,192.358 221.777,192.419 220.703 C 192.480 219.629,192.480 217.871,192.419 216.797 C 192.358 215.723,192.308 216.602,192.308 218.750 M173.594 218.125 C 174.265 218.813,174.885 219.375,174.971 219.375 C 175.057 219.375,174.578 218.813,173.906 218.125 C 173.235 217.438,172.615 216.875,172.529 216.875 C 172.443 216.875,172.922 217.438,173.594 218.125 M178.750 223.594 C 179.333 224.195,179.880 224.688,179.966 224.688 C 180.052 224.688,179.646 224.195,179.063 223.594 C 178.479 222.992,177.932 222.500,177.846 222.500 C 177.760 222.500,178.167 222.992,178.750 223.594 M192.307 227.344 C 192.307 229.406,192.358 230.209,192.419 229.128 C 192.480 228.047,192.480 226.360,192.418 225.378 C 192.356 224.397,192.306 225.281,192.307 227.344 M100.391 252.103 C 101.035 252.170,102.090 252.170,102.734 252.103 C 103.379 252.035,102.852 251.980,101.563 251.980 C 100.273 251.980,99.746 252.035,100.391 252.103 M138.516 252.103 C 139.160 252.170,140.215 252.170,140.859 252.103 C 141.504 252.035,140.977 251.980,139.688 251.980 C 138.398 251.980,137.871 252.035,138.516 252.103 M153.594 252.080 C 156.563 252.309,160.243 252.325,160.109 252.109 C 160.029 251.980,158.249 251.900,156.153 251.930 C 154.058 251.960,152.906 252.027,153.594 252.080 M224.609 252.105 C 225.512 252.169,226.988 252.169,227.891 252.105 C 228.793 252.042,228.055 251.991,226.250 251.991 C 224.445 251.991,223.707 252.042,224.609 252.105 M234.290 252.101 C 234.845 252.170,235.829 252.171,236.477 252.103 C 237.126 252.035,236.672 251.979,235.469 251.978 C 234.266 251.976,233.735 252.032,234.290 252.101 M258.888 252.278 C 258.803 252.500,258.776 254.926,258.828 257.669 L 258.923 262.656 258.993 257.401 L 259.063 252.146 262.159 252.245 C 263.861 252.299,265.189 252.238,265.109 252.109 C 264.840 251.677,259.059 251.834,258.888 252.278 M281.807 252.106 C 282.715 252.169,284.122 252.168,284.932 252.104 C 285.743 252.040,285.000 251.988,283.281 251.989 C 281.563 251.990,280.899 252.042,281.807 252.106 M290.451 252.278 C 290.366 252.499,290.336 254.995,290.384 257.824 L 290.471 262.969 290.626 257.421 C 290.778 251.975,290.761 251.469,290.451 252.278 M99.815 257.500 C 99.815 260.336,99.862 261.496,99.920 260.078 C 99.978 258.660,99.978 256.340,99.920 254.922 C 99.862 253.504,99.815 254.664,99.815 257.500 M156.065 257.656 C 156.065 260.578,156.112 261.815,156.170 260.406 C 156.228 258.996,156.228 256.606,156.170 255.093 C 156.113 253.581,156.066 254.734,156.065 257.656 M156.690 257.656 C 156.690 260.578,156.737 261.815,156.795 260.406 C 156.853 258.996,156.853 256.606,156.795 255.093 C 156.738 253.581,156.691 254.734,156.690 257.656 M259.422 254.591 C 259.396 255.827,259.480 256.904,259.609 256.983 C 259.738 257.063,259.804 256.404,259.754 255.517 C 259.595 252.644,259.470 252.294,259.422 254.591 M280.757 254.663 C 280.776 256.444,280.890 257.011,281.250 257.108 C 281.580 257.198,281.608 257.156,281.344 256.968 C 281.137 256.821,280.916 255.728,280.851 254.523 L 280.732 252.344 280.757 254.663 M291.065 257.500 C 291.065 260.336,291.112 261.496,291.170 260.078 C 291.228 258.660,291.228 256.340,291.170 254.922 C 291.112 253.504,291.065 254.664,291.065 257.500 M225.865 257.726 C 226.427 257.796,227.270 257.795,227.740 257.723 C 228.210 257.652,227.750 257.595,226.719 257.597 C 225.688 257.599,225.303 257.657,225.865 257.726 M260.547 257.721 C 260.934 257.795,261.566 257.795,261.953 257.721 C 262.340 257.646,262.023 257.585,261.250 257.585 C 260.477 257.585,260.160 257.646,260.547 257.721 M280.734 260.000 C 280.734 261.461,280.788 262.059,280.854 261.328 C 280.920 260.598,280.920 259.402,280.854 258.672 C 280.788 257.941,280.734 258.539,280.734 260.000 M282.415 257.726 C 282.970 257.795,283.954 257.796,284.602 257.728 C 285.251 257.660,284.797 257.604,283.594 257.603 C 282.391 257.601,281.860 257.657,282.415 257.726 M259.482 260.156 C 259.483 261.531,259.538 262.055,259.604 261.320 C 259.670 260.585,259.669 259.460,259.602 258.820 C 259.535 258.180,259.481 258.781,259.482 260.156 " stroke="none" fill="#93abac" fill-rule="evenodd"></path><path id="path4" d="M133.047 114.283 C 133.434 114.358,134.066 114.358,134.453 114.283 C 134.840 114.209,134.523 114.148,133.750 114.148 C 132.977 114.148,132.660 114.209,133.047 114.283 M138.047 114.283 C 138.434 114.358,139.066 114.358,139.453 114.283 C 139.840 114.209,139.523 114.148,138.750 114.148 C 137.977 114.148,137.660 114.209,138.047 114.283 M161.172 114.297 C 164.652 114.347,170.348 114.347,173.828 114.297 C 177.309 114.246,174.461 114.205,167.500 114.205 C 160.539 114.205,157.691 114.246,161.172 114.297 M183.363 114.284 C 183.752 114.358,184.314 114.355,184.613 114.277 C 184.912 114.199,184.594 114.138,183.906 114.141 C 183.219 114.145,182.974 114.209,183.363 114.284 M206.505 114.297 C 210.169 114.347,216.076 114.347,219.630 114.296 C 223.185 114.246,220.188 114.205,212.969 114.205 C 205.750 114.206,202.841 114.247,206.505 114.297 M227.427 114.289 C 227.989 114.359,228.833 114.357,229.302 114.286 C 229.772 114.214,229.313 114.158,228.281 114.159 C 227.250 114.161,226.866 114.219,227.427 114.289 M246.797 114.294 C 247.871 114.355,249.629 114.355,250.703 114.294 C 251.777 114.233,250.898 114.183,248.750 114.183 C 246.602 114.183,245.723 114.233,246.797 114.294 M136.953 116.465 C 137.254 116.544,137.746 116.544,138.047 116.465 C 138.348 116.387,138.102 116.323,137.500 116.323 C 136.898 116.323,136.652 116.387,136.953 116.465 M227.505 120.078 C 227.502 120.446,227.731 120.617,228.203 120.600 C 228.673 120.584,228.751 120.516,228.438 120.397 C 228.180 120.299,227.865 120.064,227.739 119.875 C 227.598 119.663,227.508 119.741,227.505 120.078 M101.954 127.031 C 101.957 127.719,102.021 127.963,102.096 127.574 C 102.171 127.186,102.168 126.623,102.090 126.324 C 102.011 126.026,101.950 126.344,101.954 127.031 M87.308 130.138 C 87.212 130.386,87.190 130.843,87.257 131.154 C 87.333 131.506,87.440 131.337,87.542 130.703 C 87.712 129.639,87.601 129.372,87.308 130.138 M261.323 131.250 C 261.323 131.852,261.387 132.098,261.465 131.797 C 261.544 131.496,261.544 131.004,261.465 130.703 C 261.387 130.402,261.323 130.648,261.323 131.250 M278.516 134.844 C 278.520 135.531,278.584 135.776,278.659 135.387 C 278.733 134.998,278.730 134.436,278.652 134.137 C 278.574 133.838,278.513 134.156,278.516 134.844 M263.527 171.406 C 263.529 172.266,263.590 172.580,263.662 172.105 C 263.734 171.630,263.732 170.927,263.657 170.543 C 263.583 170.158,263.525 170.547,263.527 171.406 M227.603 176.094 C 227.604 177.297,227.660 177.751,227.728 177.102 C 227.796 176.454,227.795 175.470,227.726 174.915 C 227.657 174.360,227.601 174.891,227.603 176.094 M101.250 175.723 C 101.250 175.777,101.707 176.234,102.266 176.738 L 103.281 177.656 102.363 176.641 C 101.508 175.694,101.250 175.481,101.250 175.723 M211.801 214.284 C 212.189 214.358,212.752 214.355,213.051 214.277 C 213.349 214.199,213.031 214.138,212.344 214.141 C 211.656 214.145,211.412 214.209,211.801 214.284 M169.198 222.813 C 169.198 227.195,169.242 228.988,169.296 226.797 C 169.350 224.605,169.350 221.020,169.296 218.828 C 169.242 216.637,169.198 218.430,169.198 222.813 M170.625 217.598 C 170.625 217.652,171.082 218.109,171.641 218.613 L 172.656 219.531 171.738 218.516 C 170.883 217.569,170.625 217.356,170.625 217.598 M184.503 222.656 C 184.503 225.578,184.549 226.815,184.607 225.406 C 184.665 223.996,184.665 221.606,184.608 220.093 C 184.550 218.581,184.503 219.734,184.503 222.656 M204.781 222.813 C 204.781 223.758,204.840 224.145,204.911 223.672 C 204.983 223.199,204.983 222.426,204.911 221.953 C 204.840 221.480,204.781 221.867,204.781 222.813 M179.987 227.578 C 180.753 228.395,181.421 229.063,181.471 229.063 C 181.706 229.063,181.458 228.782,180.078 227.487 L 178.594 226.094 179.987 227.578 M167.619 231.936 C 167.533 232.074,168.034 232.188,168.732 232.188 C 169.429 232.188,170.000 232.133,170.000 232.065 C 170.000 231.815,167.768 231.693,167.619 231.936 M170.781 231.875 C 170.227 232.113,170.254 232.146,171.016 232.166 C 171.488 232.178,171.875 232.047,171.875 231.875 C 171.875 231.508,171.635 231.508,170.781 231.875 M188.858 231.953 C 188.778 232.082,191.104 232.188,194.026 232.188 C 196.947 232.188,199.403 232.082,199.483 231.953 C 199.563 231.824,197.237 231.719,194.315 231.719 C 191.393 231.719,188.938 231.824,188.858 231.953 M99.208 257.656 L 99.219 262.969 101.250 262.995 L 103.281 263.021 101.335 262.902 L 99.390 262.783 99.293 257.563 L 99.197 252.344 99.208 257.656 M137.950 255.156 L 137.969 257.656 139.531 257.681 L 141.094 257.705 139.622 257.587 L 138.150 257.468 138.040 255.062 L 137.931 252.656 137.950 255.156 M280.127 257.500 C 280.127 260.336,280.175 261.496,280.232 260.078 C 280.290 258.660,280.290 256.340,280.232 254.922 C 280.175 253.504,280.127 254.664,280.127 257.500 M172.898 257.500 C 172.898 258.273,172.959 258.590,173.033 258.203 C 173.108 257.816,173.108 257.184,173.033 256.797 C 172.959 256.410,172.898 256.727,172.898 257.500 M234.609 257.721 C 234.996 257.795,235.629 257.795,236.016 257.721 C 236.402 257.646,236.086 257.585,235.313 257.585 C 234.539 257.585,234.223 257.646,234.609 257.721 M204.297 258.033 C 204.684 258.108,205.316 258.108,205.703 258.033 C 206.090 257.959,205.773 257.898,205.000 257.898 C 204.227 257.898,203.910 257.959,204.297 258.033 M137.810 260.533 C 137.725 261.943,137.768 262.984,137.905 262.846 C 138.042 262.708,138.111 261.555,138.059 260.282 L 137.963 257.969 137.810 260.533 M207.184 261.001 C 207.100 262.154,207.144 262.983,207.283 262.844 C 207.421 262.705,207.489 261.762,207.435 260.749 L 207.336 258.906 207.184 261.001 M205.469 261.563 C 205.065 262.009,205.062 262.083,205.450 262.083 C 205.699 262.083,205.875 261.937,205.842 261.759 C 205.809 261.581,205.945 261.428,206.146 261.420 C 206.698 261.399,206.944 261.042,206.408 261.042 C 206.150 261.042,205.728 261.276,205.469 261.563 M226.406 262.813 L 223.281 263.004 226.310 263.064 C 228.060 263.099,229.420 262.993,229.531 262.813 C 229.637 262.641,229.681 262.527,229.628 262.561 C 229.575 262.594,228.125 262.707,226.406 262.813 M283.438 262.813 L 280.469 263.005 283.341 263.065 C 284.987 263.099,286.296 262.992,286.406 262.813 C 286.512 262.641,286.556 262.527,286.503 262.560 C 286.450 262.593,285.070 262.706,283.438 262.813 M115.391 263.028 C 115.691 263.107,116.184 263.107,116.484 263.028 C 116.785 262.949,116.539 262.885,115.938 262.885 C 115.336 262.885,115.090 262.949,115.391 263.028 M128.047 263.033 C 128.434 263.108,129.066 263.108,129.453 263.033 C 129.840 262.959,129.523 262.898,128.750 262.898 C 127.977 262.898,127.660 262.959,128.047 263.033 M250.870 263.043 C 251.778 263.107,253.184 263.106,253.995 263.042 C 254.805 262.978,254.063 262.926,252.344 262.927 C 250.625 262.927,249.962 262.980,250.870 263.043 M260.703 263.042 C 261.520 263.107,262.855 263.107,263.672 263.042 C 264.488 262.978,263.820 262.925,262.188 262.925 C 260.555 262.925,259.887 262.978,260.703 263.042 M291.953 263.042 C 292.770 263.107,294.105 263.107,294.922 263.042 C 295.738 262.978,295.070 262.925,293.438 262.925 C 291.805 262.925,291.137 262.978,291.953 263.042 " stroke="none" fill="#7c7c7c" fill-rule="evenodd"></path></g></svg>