<?xml version="1.0" standalone="no"?>
<!DOCTYPE svg PUBLIC "-//W3C//DTD SVG 20010904//EN"
 "http://www.w3.org/TR/2001/REC-SVG-20010904/DTD/svg10.dtd">
<svg version="1.0" xmlns="http://www.w3.org/2000/svg"
 width="761.000000pt" height="651.000000pt" viewBox="0 0 761.000000 651.000000"
 preserveAspectRatio="xMidYMid meet">

<g transform="translate(0.000000,651.000000) scale(0.100000,-0.100000)"
fill="#000000" stroke="none">
<path d="M3803 6087 c-15 -13 -59 -45 -98 -72 -38 -27 -74 -55 -78 -62 -4 -7
-12 -13 -17 -13 -5 0 -58 -36 -117 -80 -59 -44 -132 -96 -161 -117 -29 -21
-65 -48 -80 -61 -15 -12 -43 -32 -62 -44 -19 -12 -37 -25 -40 -28 -3 -4 -27
-21 -55 -40 -27 -19 -52 -36 -55 -40 -13 -15 -272 -200 -280 -200 -6 0 -10 -4
-10 -9 0 -6 -11 -16 -24 -23 -29 -16 -191 -136 -218 -160 -10 -10 -20 -18 -23
-18 -3 0 -48 -31 -100 -70 -52 -38 -99 -70 -105 -70 -9 0 -14 -14 -11 -33 1
-5 -3 -6 -8 -2 -10 6 -53 -17 -79 -42 -7 -7 -26 -20 -43 -30 -19 -11 -27 -23
-24 -32 3 -9 3 -12 -1 -9 -10 11 -35 -5 -226 -145 l-178 -130 0 -140 0 -139
97 4 98 3 -4 -77 -3 -78 1946 0 c1070 0 1945 3 1945 8 -1 4 -1 37 0 75 l1 67
73 0 c124 0 117 -8 117 142 0 148 7 134 -110 218 -41 30 -77 57 -80 61 -3 3
-36 28 -75 54 -38 27 -74 54 -78 62 -4 7 -13 13 -19 13 -5 0 -27 14 -48 30
-21 17 -63 47 -92 67 -29 20 -55 39 -58 43 -3 3 -27 22 -55 41 -27 18 -52 36
-55 40 -3 3 -22 15 -42 28 -21 12 -38 27 -38 32 0 5 -7 9 -15 9 -8 0 -15 4
-15 9 0 5 -8 12 -17 15 -10 3 -31 18 -48 32 -16 14 -54 42 -83 62 -30 19 -56
41 -59 48 -2 7 -14 15 -26 18 -12 3 -40 21 -62 41 -36 31 -55 40 -78 36 -5 -1
-6 3 -3 8 4 5 -8 20 -26 32 -18 13 -37 29 -41 36 -4 7 -14 13 -21 13 -7 0 -30
15 -52 33 -103 85 -156 120 -166 106 -7 -11 -8 -11 -6 2 3 15 -44 57 -113 101
-14 9 -32 23 -40 30 -28 28 -68 50 -80 42 -7 -4 -9 -3 -6 3 10 16 -27 44 -49
37 -14 -4 -15 -3 -5 4 10 7 0 18 -44 47 -31 21 -59 44 -62 52 -3 7 -10 13 -17
13 -6 0 -62 38 -123 85 -61 47 -118 85 -127 85 -8 0 -27 -10 -43 -23z m-1093
-821 c0 -2 -8 -10 -17 -17 -16 -13 -17 -12 -4 4 13 16 21 21 21 13z m-780
-586 c0 -5 -5 -10 -11 -10 -5 0 -7 5 -4 10 3 6 8 10 11 10 2 0 4 -4 4 -10z
m-17 -377 c-7 -2 -19 -2 -25 0 -7 3 -2 5 12 5 14 0 19 -2 13 -5z m270 -140
c-7 -2 -21 -2 -30 0 -10 3 -4 5 12 5 17 0 24 -2 18 -5z m1135 0 c-76 -2 -200
-2 -275 0 -76 1 -14 3 137 3 151 0 213 -2 138 -3z m1404 0 c-95 -2 -248 -2
-340 0 -92 1 -14 3 173 3 187 0 262 -2 167 -3z m-2689 -20 c-7 -2 -19 -2 -25
0 -7 3 -2 5 12 5 14 0 19 -2 13 -5z m705 0 c-10 -2 -26 -2 -35 0 -10 3 -2 5
17 5 19 0 27 -2 18 -5z m845 0 c-7 -2 -19 -2 -25 0 -7 3 -2 5 12 5 14 0 19 -2
13 -5z m585 0 c-10 -2 -26 -2 -35 0 -10 3 -2 5 17 5 19 0 27 -2 18 -5z m885 0
c-7 -2 -19 -2 -25 0 -7 3 -2 5 12 5 14 0 19 -2 13 -5z m560 0 c-7 -2 -19 -2
-25 0 -7 3 -2 5 12 5 14 0 19 -2 13 -5z m150 0 c-7 -2 -19 -2 -25 0 -7 3 -2 5
12 5 14 0 19 -2 13 -5z"/>
<path d="M1270 5157 c-56 -34 -165 -153 -199 -216 -70 -131 -75 -244 -21 -415
12 -38 16 -65 10 -76 -5 -9 -21 -61 -35 -115 -25 -91 -31 -121 -34 -150 -3
-24 -21 23 -21 53 0 64 -96 263 -125 260 -5 0 -17 0 -25 1 -13 1 -13 2 0 11 8
5 12 11 10 13 -42 34 -128 92 -175 116 l-60 31 -12 -47 c-23 -96 -14 -209 24
-318 37 -105 163 -234 287 -293 l63 -30 -12 -81 c-6 -45 -14 -84 -18 -87 -3
-3 -11 12 -17 34 -15 57 -89 151 -159 202 -67 49 -208 117 -219 106 -15 -16
-7 -229 11 -280 32 -90 74 -163 118 -205 60 -58 167 -127 218 -141 23 -6 44
-16 46 -23 7 -21 13 -145 8 -151 -3 -3 -18 14 -33 37 -22 35 -84 97 -136 137
-42 32 -192 89 -234 90 -25 0 -25 0 -22 -77 3 -43 8 -86 13 -95 5 -9 9 -24 9
-33 0 -35 71 -166 115 -214 41 -44 152 -121 175 -121 5 0 10 -5 12 -11 2 -6
22 -11 45 -12 22 -1 39 -5 37 -9 -3 -4 13 -11 36 -14 30 -5 40 -11 40 -25 0
-11 4 -19 8 -19 5 0 9 -6 9 -12 0 -7 10 -48 22 -91 13 -44 20 -81 17 -84 -2
-3 -15 5 -28 17 -46 43 -104 77 -163 95 -33 9 -71 21 -85 26 -14 4 -60 11
-102 15 l-78 6 0 -25 c0 -30 47 -148 85 -214 87 -147 259 -242 442 -243 62 0
63 -1 86 -37 35 -58 48 -91 37 -98 -6 -4 -10 -1 -10 4 0 6 -7 11 -15 11 -9 0
-29 7 -46 15 -45 24 -182 38 -269 28 -93 -10 -97 -21 -43 -112 70 -119 169
-210 273 -251 79 -31 198 -44 280 -30 l72 12 76 -76 c76 -75 141 -126 161
-126 20 0 11 37 -11 47 -24 11 -188 161 -188 172 0 3 17 17 37 31 21 14 58 45
83 70 139 137 183 258 160 451 -7 52 -16 98 -21 103 -5 6 -9 17 -9 26 0 9 -6
25 -14 35 -13 19 -15 18 -52 -7 -125 -83 -223 -227 -243 -357 -13 -83 1 -239
24 -274 9 -15 11 -27 5 -37 -8 -13 -10 -13 -10 2 0 9 -6 21 -14 25 -7 4 -18
18 -25 30 -6 13 -33 51 -59 86 -69 91 -154 243 -150 269 2 12 10 23 18 25 13
4 13 3 0 -6 -10 -7 -11 -11 -3 -11 7 0 37 16 67 35 30 19 59 35 63 35 7 0 135
130 158 161 6 8 22 48 35 89 29 90 35 263 11 348 -2 7 -83 -34 -137 -69 -81
-52 -164 -140 -197 -209 -28 -57 -59 -192 -56 -245 0 -16 0 -41 0 -55 l-2 -25
-14 25 c-8 14 -14 31 -15 38 0 8 -6 28 -14 45 -31 72 -56 136 -56 146 0 5 -5
22 -12 38 -6 15 -10 32 -9 37 1 5 -1 16 -5 25 -11 25 -17 53 -18 86 -1 29 1
30 57 41 72 15 108 29 173 71 64 40 154 128 154 149 0 3 9 18 20 33 24 34 65
175 74 254 l6 59 -32 -5 c-95 -15 -230 -73 -298 -129 -75 -61 -147 -191 -175
-313 -10 -45 -23 -13 -29 76 -3 41 -8 118 -12 172 l-7 97 24 0 c52 0 178 34
248 68 77 37 157 104 146 122 -3 5 0 8 7 5 23 -9 90 126 124 250 22 80 24 78
-58 71 -40 -4 -89 -12 -108 -18 -62 -20 -140 -60 -134 -69 3 -5 -3 -6 -12 -2
-13 5 -15 3 -9 -7 5 -9 4 -11 -3 -6 -18 11 -37 -4 -21 -16 11 -8 10 -9 -3 -4
-22 7 -94 -66 -125 -126 -40 -79 -63 -132 -63 -145 0 -7 -6 -13 -13 -13 -10 0
-9 33 1 163 19 224 9 201 93 205 39 2 82 7 96 13 13 5 34 9 46 9 38 0 150 64
209 120 32 30 58 58 58 62 0 4 14 29 30 55 17 26 40 77 51 113 11 36 22 73 25
83 5 15 -2 17 -53 17 -81 0 -241 -41 -298 -76 -26 -16 -55 -33 -65 -38 -9 -5
-42 -45 -74 -89 -67 -95 -69 -86 -27 83 24 93 34 119 56 135 101 78 169 162
210 260 26 62 30 82 29 170 0 74 -6 122 -23 183 -13 45 -26 84 -30 86 -4 3
-22 -5 -41 -17z m67 -249 c-3 -8 -6 -5 -6 6 -1 11 2 17 5 13 3 -3 4 -12 1 -19z
m130 -474 c-3 -3 -12 -4 -19 -1 -8 3 -5 6 6 6 11 1 17 -2 13 -5z m-525 -179
c-8 -16 -9 -16 -15 -1 -4 10 -3 15 3 11 6 -3 10 -1 10 6 0 7 3 10 6 6 3 -3 2
-13 -4 -22z m-365 -407 c-3 -8 -6 -5 -6 6 -1 11 2 17 5 13 3 -3 4 -12 1 -19z
m713 -232 c0 -2 -7 -7 -16 -10 -8 -3 -12 -2 -9 4 6 10 25 14 25 6z m220 -30
c0 -2 -11 -6 -25 -8 -13 -3 -22 -1 -19 3 5 9 44 13 44 5z m57 -628 c-3 -7 -5
-2 -5 12 0 14 2 19 5 13 2 -7 2 -19 0 -25z m-897 -173 c0 -5 -5 -3 -10 5 -5 8
-10 20 -10 25 0 6 5 3 10 -5 5 -8 10 -19 10 -25z m217 -221 c-3 -3 -12 -4 -19
-1 -8 3 -5 6 6 6 11 1 17 -2 13 -5z m-24 -211 c-7 -2 -19 -2 -25 0 -7 3 -2 5
12 5 14 0 19 -2 13 -5z m870 -68 c-3 -9 -8 -14 -10 -11 -3 3 -2 9 2 15 9 16
15 13 8 -4z"/>
<path d="M6282 5157 c-49 -98 -61 -311 -23 -409 38 -98 125 -208 216 -275 21
-15 32 -42 60 -148 18 -71 31 -133 28 -138 -3 -5 -21 15 -40 45 -38 56 -92
117 -106 118 -5 0 -23 11 -40 24 -56 42 -215 86 -315 86 -46 0 -53 -2 -48 -17
3 -10 8 -31 12 -48 18 -80 147 -293 178 -295 5 0 23 -11 40 -23 66 -50 174
-84 288 -89 38 -2 69 -5 69 -8 1 -3 3 -15 4 -26 1 -12 5 -48 9 -80 3 -33 9
-99 12 -149 3 -49 8 -93 11 -97 2 -5 -2 -8 -10 -8 -8 0 -18 12 -22 27 -12 48
-46 115 -85 167 -65 87 -120 129 -215 165 -33 12 -67 26 -76 31 -8 4 -50 11
-92 15 -91 9 -88 15 -52 -108 35 -120 86 -209 156 -271 80 -70 256 -137 347
-131 27 1 33 -2 38 -22 4 -13 3 -38 0 -56 -4 -18 -12 -70 -17 -117 -6 -47 -13
-110 -17 -140 -8 -55 -8 -55 -16 -20 -11 49 -31 109 -52 155 -32 70 -119 169
-173 197 -15 7 -28 15 -31 18 -14 15 -91 42 -105 36 -9 -3 -13 -2 -10 4 6 9 0
11 -82 29 l-43 9 0 -47 c0 -74 27 -181 62 -250 33 -63 111 -153 158 -181 76
-44 134 -69 186 -81 95 -20 94 7 4 -286 -11 -35 -28 -82 -39 -105 -10 -24 -23
-52 -27 -63 -6 -15 -9 -8 -11 30 -12 220 -90 366 -248 467 -27 18 -52 35 -55
38 -3 3 -24 13 -47 22 l-42 16 -8 -36 c-14 -66 -7 -233 12 -297 20 -69 75
-156 124 -200 19 -16 39 -35 45 -41 9 -8 64 -42 165 -102 12 -7 9 -20 -19 -73
-18 -35 -38 -74 -44 -86 -6 -13 -14 -23 -18 -23 -5 0 -8 -6 -8 -12 0 -7 -14
-29 -32 -48 -17 -19 -51 -66 -75 -103 -25 -38 -47 -66 -50 -63 -3 2 2 28 11
58 30 106 21 275 -21 368 -22 48 -89 137 -131 174 -19 17 -44 39 -55 49 -12
10 -27 15 -34 12 -8 -2 -12 -1 -9 4 3 5 0 14 -8 20 -11 9 -15 8 -20 -5 -3 -9
-3 -21 1 -26 3 -6 2 -8 -3 -5 -6 3 -16 -15 -23 -41 -7 -26 -17 -60 -22 -76
-16 -52 -11 -187 10 -241 37 -99 51 -126 63 -119 7 4 8 3 4 -5 -10 -15 73
-114 90 -107 9 3 11 0 7 -11 -5 -12 -2 -15 10 -10 12 4 14 2 10 -10 -5 -13 -2
-15 11 -10 10 4 15 3 11 -3 -3 -5 10 -20 29 -32 19 -12 34 -30 33 -40 -1 -9
-4 -15 -7 -13 -11 7 -81 -71 -73 -80 5 -4 2 -5 -4 -1 -7 4 -28 -7 -49 -26 -20
-18 -43 -37 -52 -43 -19 -11 -28 -45 -13 -45 21 0 71 36 66 48 -3 7 0 10 6 6
14 -8 80 56 72 69 -3 6 -1 7 5 3 6 -4 29 13 53 39 23 24 45 43 48 40 4 -2 38
-9 75 -15 88 -14 225 7 304 47 97 49 200 158 255 272 25 51 22 58 -31 70 -87
18 -244 4 -317 -29 -11 -5 -32 -14 -48 -20 l-27 -10 25 45 c53 95 52 95 111
95 50 0 141 14 174 27 8 4 17 7 20 8 62 16 147 72 197 129 48 54 94 138 122
223 33 97 33 97 -46 89 -38 -4 -75 -8 -83 -8 -8 0 -26 -3 -40 -8 -14 -4 -52
-16 -85 -26 -33 -11 -62 -21 -65 -24 -3 -3 -21 -17 -42 -32 -20 -15 -44 -35
-53 -44 -25 -26 -29 -10 -9 48 10 29 22 77 28 107 l11 54 71 18 c88 23 179 71
253 135 81 69 135 182 156 323 9 58 14 110 11 117 -5 13 -23 10 -111 -16 -45
-14 -81 -36 -68 -42 4 -3 2 -3 -6 -1 -16 4 -81 -18 -81 -28 0 -4 -18 -21 -40
-37 -22 -16 -59 -55 -82 -87 -30 -42 -43 -53 -49 -44 -5 8 -4 15 1 17 6 2 10
32 10 67 0 69 7 79 62 89 60 11 235 150 267 213 14 28 14 36 -1 27 -7 -4 -8
-3 -4 4 4 6 13 9 20 6 9 -3 17 11 26 43 7 26 17 53 21 58 11 15 23 217 15 249
-8 31 -16 30 -106 -12 -125 -58 -216 -142 -263 -240 -34 -73 -49 -71 -51 10
-1 29 -6 61 -10 70 -6 13 1 21 33 37 22 12 47 21 56 21 8 0 15 3 15 8 0 4 20
20 44 35 59 37 152 139 175 191 35 80 39 94 51 169 11 71 2 210 -16 238 -3 5
-20 2 -37 -8 -142 -77 -205 -129 -259 -213 -36 -55 -71 -151 -83 -224 -8 -49
-14 -42 -30 36 -16 80 -42 174 -55 197 -6 12 -3 35 10 72 55 161 50 280 -16
410 -38 76 -146 194 -211 231 -29 17 -30 17 -41 -5z m725 -659 c-3 -7 -5 -2
-5 12 0 14 2 19 5 13 2 -7 2 -19 0 -25z m-448 -173 c0 -5 -4 -3 -9 5 -5 8 -9
22 -9 30 0 16 17 -16 18 -35z m98 -67 c-3 -8 -6 -5 -6 6 -1 11 2 17 5 13 3 -3
4 -12 1 -19z m283 -22 c0 -3 -4 -8 -10 -11 -5 -3 -10 -1 -10 4 0 6 5 11 10 11
6 0 10 -2 10 -4z m-809 -1143 c13 -16 12 -17 -3 -4 -17 13 -22 21 -14 21 2 0
10 -8 17 -17z m666 11 c-3 -3 -12 -4 -19 -1 -8 3 -5 6 6 6 11 1 17 -2 13 -5z
m-204 -61 c-7 -2 -19 -2 -25 0 -7 3 -2 5 12 5 14 0 19 -2 13 -5z m-466 -800
c-3 -10 -5 -2 -5 17 0 19 2 27 5 18 2 -10 2 -26 0 -35z"/>
<path d="M2163 4053 l-83 -4 0 -49 c0 -68 7 -80 44 -80 l31 0 -2 -853 -2 -852
-35 -3 -36 -3 0 -65 0 -64 309 0 309 0 6 23 c8 30 7 80 -2 94 -4 6 -19 13 -35
15 l-27 3 -3 853 c-1 562 1 852 8 853 6 1 18 0 29 -1 26 -3 36 17 36 76 l0 51
-52 7 c-52 6 -334 5 -495 -1z m454 -19 c-3 -3 -12 -4 -19 -1 -8 3 -5 6 6 6 11
1 17 -2 13 -5z"/>
<path d="M3612 4053 l-73 -4 3 -62 c3 -58 5 -62 28 -64 14 0 30 -1 35 -2 7 -1
9 -291 8 -853 l-3 -853 -35 -3 -35 -3 0 -65 0 -64 310 0 310 0 0 43 c0 23 3
53 7 66 6 22 4 23 -31 19 l-36 -4 -2 843 c-1 464 -2 851 -2 860 -1 13 7 17 31
17 l31 -1 4 63 c2 35 3 64 3 64 0 4 -500 6 -553 3z m465 -1845 c-3 -8 -6 -5
-6 6 -1 11 2 17 5 13 3 -3 4 -12 1 -19z"/>
<path d="M5005 4050 l-20 -7 20 -5 c12 -4 14 -6 5 -7 -12 -1 -14 -13 -12 -56
3 -34 8 -55 15 -54 7 1 22 1 35 0 l22 -1 -2 -852 -3 -853 -32 -3 c-31 -3 -31
-3 -35 -68 l-3 -64 311 0 311 0 2 65 2 65 -35 0 -36 0 0 855 c0 848 0 855 20
856 11 1 26 2 33 3 8 1 12 21 12 66 l0 65 -295 2 c-162 0 -304 -2 -315 -7z
m88 -17 c-7 -2 -21 -2 -30 0 -10 3 -4 5 12 5 17 0 24 -2 18 -5z m444 1 c-3 -3
-12 -4 -19 -1 -8 3 -5 6 6 6 11 1 17 -2 13 -5z"/>
<path d="M1830 1895 l0 -115 1980 0 1981 0 -2 115 -1 115 -1979 0 -1979 0 0
-115z"/>
<path d="M1630 1660 l0 -110 2175 0 2175 0 0 110 0 110 -2175 0 -2175 0 0
-110z"/>
<path d="M3120 672 c0 -273 -1 -281 -21 -295 -26 -19 -17 -24 49 -25 56 -1 64
6 32 26 -19 12 -20 23 -20 227 0 124 4 215 9 215 5 0 11 -4 13 -9 2 -5 64 -73
138 -152 180 -192 252 -269 278 -298 l22 -25 0 280 c0 153 4 284 8 291 4 7 19
16 32 22 19 7 4 10 -65 9 -49 0 -81 -3 -70 -5 11 -3 28 -12 38 -21 15 -13 17
-38 17 -231 l-1 -216 -56 60 c-31 33 -111 118 -177 189 -67 71 -145 154 -173
184 l-53 56 0 -282z"/>
<path d="M3900 940 c-85 -3 -148 -7 -139 -8 9 -1 23 -10 32 -20 15 -16 17 -49
17 -255 0 -237 -6 -287 -37 -287 -7 0 -13 -4 -13 -8 0 -13 318 -12 328 2 12
15 45 116 40 121 -2 3 -10 -10 -16 -28 -19 -53 -73 -77 -171 -77 l-82 0 3 123
3 122 82 3 c81 3 81 3 91 -25 9 -24 10 -17 10 42 0 44 -3 61 -7 45 -7 -24 -11
-25 -94 -28 l-88 -3 3 123 3 123 80 3 c98 4 119 -1 133 -30 9 -20 11 -17 11
25 1 39 -2 47 -16 45 -10 -1 -88 -5 -173 -8z"/>
<path d="M4375 926 c-64 -27 -112 -72 -148 -141 -17 -32 -21 -58 -22 -135 0
-89 2 -99 33 -156 41 -75 97 -118 183 -140 106 -27 205 -1 274 72 34 35 45 71
44 133 l0 36 -13 -46 c-18 -69 -47 -111 -99 -143 -123 -76 -280 -26 -337 106
-29 66 -32 201 -7 260 53 126 170 178 305 137 44 -13 112 -80 112 -109 0 -7 3
-11 6 -7 3 3 3 28 -1 55 -6 49 -8 51 -58 72 -34 15 -79 24 -132 27 -69 3 -88
0 -140 -21z"/>
</g>
</svg>
