<?xml version="1.0" standalone="no"?>
<!DOCTYPE svg PUBLIC "-//W3C//DTD SVG 20010904//EN"
 "http://www.w3.org/TR/2001/REC-SVG-20010904/DTD/svg10.dtd">
<svg version="1.0" xmlns="http://www.w3.org/2000/svg"
 width="304.000000pt" height="246.000000pt" viewBox="0 0 304.000000 246.000000"
 preserveAspectRatio="xMidYMid meet">

<g transform="translate(0.000000,246.000000) scale(0.100000,-0.100000)"
fill="#000000" stroke="none">
<path d="M1280 2116 l-305 -223 -3 -42 c-3 -38 -1 -41 22 -41 21 0 26 -5 26
-25 l0 -25 565 0 565 0 0 25 c0 21 5 25 30 25 28 0 30 2 30 38 0 30 -6 43 -29
59 -131 97 -551 403 -571 415 -25 16 -28 14 -330 -206z"/>
<path d="M812 2037 c-40 -41 -54 -87 -43 -139 5 -21 7 -49 4 -61 -2 -13 2 -9
11 11 8 17 19 32 25 32 5 0 19 15 30 34 21 34 27 102 13 139 -7 16 -11 14 -40
-16z"/>
<path d="M2297 2056 c-14 -36 -7 -111 13 -143 11 -18 24 -33 30 -33 6 0 17
-14 24 -30 l13 -31 1 49 c0 26 2 53 3 58 7 37 -5 69 -39 106 -33 35 -40 38
-45 24z"/>
<path d="M642 1855 c5 -60 28 -94 82 -122 64 -33 159 11 191 90 17 41 15 42
-50 26 -29 -7 -55 -23 -76 -47 l-33 -36 -9 34 c-13 52 -65 108 -101 110 -5 0
-6 -25 -4 -55z"/>
<path d="M2446 1875 c-21 -21 -38 -49 -42 -72 -7 -36 -8 -36 -15 -13 -6 20 -7
21 -8 5 -1 -18 -2 -18 -17 3 -19 27 -58 48 -107 57 l-38 7 15 -38 c46 -111
165 -135 245 -50 18 19 26 41 29 81 6 67 -10 72 -62 20z"/>
<path d="M620 1733 c0 -49 35 -107 81 -132 26 -15 39 -29 39 -44 0 -20 -1 -20
-27 5 -30 27 -65 48 -82 48 -19 0 -12 -61 10 -97 21 -34 64 -63 94 -63 9 0 20
-10 25 -22 9 -23 9 -23 9 -2 1 16 9 23 32 28 43 8 94 63 103 110 4 21 5 40 2
43 -2 3 -25 -4 -50 -15 -47 -21 -86 -69 -86 -107 0 -17 -2 -17 -10 -5 -5 8
-10 33 -10 56 0 39 2 41 39 52 51 16 90 48 107 88 18 43 18 54 -3 54 -41 0
-102 -41 -122 -83 l-21 -42 0 45 c0 33 -3 41 -10 30 -6 -9 -10 -10 -10 -3 0
21 -49 71 -80 82 -30 10 -30 10 -30 -26z"/>
<path d="M2490 1752 c-19 -9 -44 -32 -56 -50 -14 -20 -24 -28 -27 -20 -3 7 -6
-7 -6 -32 l-1 -45 -21 42 c-20 42 -81 83 -122 83 -21 0 -21 -11 -3 -54 17 -40
56 -72 107 -88 36 -10 39 -14 38 -47 0 -20 -4 -45 -9 -56 l-9 -20 0 20 c-2 38
-40 86 -87 107 -25 11 -48 18 -50 15 -3 -3 -2 -22 2 -43 9 -47 60 -102 103
-110 36 -7 37 -13 15 -80 -23 -68 -34 -76 -34 -24 0 38 -5 48 -45 87 -25 24
-50 43 -55 43 -16 0 -12 -79 6 -116 9 -18 31 -43 50 -55 19 -11 34 -26 34 -33
0 -7 -16 -35 -36 -62 l-36 -49 5 37 c8 52 -8 99 -43 133 -26 25 -32 27 -40 15
-19 -30 -11 -104 14 -139 41 -55 60 -64 128 -59 55 4 64 8 94 41 19 20 34 41
34 47 0 16 -45 22 -84 12 -20 -6 -36 -7 -36 -4 1 18 20 30 67 41 38 10 61 22
83 47 16 19 30 39 30 44 0 4 3 16 7 26 5 15 2 16 -33 10 -21 -4 -51 -14 -66
-22 -30 -16 -34 -10 -18 30 5 14 17 26 25 26 30 0 73 30 94 65 22 38 28 95 10
95 -17 0 -52 -21 -81 -48 -26 -24 -28 -24 -28 -6 0 13 15 30 37 45 51 33 83
83 83 130 0 22 -1 39 -2 39 -2 0 -19 -8 -38 -18z"/>
<path d="M1080 1726 c0 -8 5 -18 10 -21 6 -4 10 -100 10 -256 0 -159 -4 -249
-10 -249 -5 0 -10 -7 -10 -15 0 -12 16 -15 85 -15 69 0 85 3 85 15 0 8 -4 15
-10 15 -6 0 -10 90 -10 249 0 156 4 252 10 256 6 3 10 13 10 21 0 11 -18 14
-85 14 -67 0 -85 -3 -85 -14z"/>
<path d="M1500 1725 c0 -8 5 -15 10 -15 6 0 10 -92 10 -255 0 -163 -4 -255
-10 -255 -5 0 -10 -7 -10 -15 0 -12 17 -15 90 -15 73 0 90 3 90 15 0 8 -4 15
-10 15 -6 0 -10 92 -10 255 0 163 4 255 10 255 6 0 10 7 10 15 0 12 -17 15
-90 15 -73 0 -90 -3 -90 -15z"/>
<path d="M1930 1726 c0 -8 5 -18 10 -21 6 -4 10 -100 10 -256 0 -159 -4 -249
-10 -249 -5 0 -10 -7 -10 -15 0 -12 16 -15 85 -15 69 0 85 3 85 15 0 8 -4 15
-10 15 -6 0 -10 90 -10 249 0 156 4 252 10 256 6 3 10 13 10 21 0 11 -18 14
-85 14 -67 0 -85 -3 -85 -14z"/>
<path d="M865 1437 c-41 -40 -45 -48 -45 -93 0 -55 -12 -47 -31 21 -7 22 -14
34 -16 28 -4 -10 -11 -10 -32 1 -31 16 -101 31 -101 22 0 -4 6 -21 14 -39 19
-46 66 -83 116 -91 83 -13 160 61 160 154 0 22 -4 40 -10 40 -5 0 -30 -19 -55
-43z"/>
<path d="M932 1326 c-34 -39 -46 -87 -33 -134 13 -42 0 -33 -40 28 -33 51 -43
62 -33 36 5 -12 0 -13 -31 -5 -40 11 -85 5 -85 -11 0 -6 15 -27 33 -47 30 -32
40 -37 93 -41 45 -3 66 -10 89 -31 l30 -26 -25 28 c-22 25 -23 30 -10 40 44
35 70 80 70 122 0 47 -8 75 -20 75 -4 0 -21 -15 -38 -34z"/>
<path d="M1000 1110 l0 -30 575 0 575 0 0 30 0 30 -575 0 -575 0 0 -30z"/>
<path d="M2203 1114 l-28 -26 33 22 c29 20 39 30 28 30 -3 0 -18 -12 -33 -26z"/>
<path d="M950 1040 l0 -30 630 0 630 0 0 30 0 30 -630 0 -630 0 0 -30z"/>
<path d="M1150 558 c0 -140 -2 -157 -17 -161 -10 -3 5 -5 32 -5 28 0 43 2 35
5 -8 3 -18 11 -22 17 -10 15 -10 226 0 225 4 0 59 -57 122 -125 l115 -125 3
148 c2 125 5 150 19 161 14 10 10 12 -28 12 -35 -1 -40 -3 -26 -11 15 -9 17
-26 17 -127 l-1 -117 -124 130 -124 130 -1 -157z"/>
<path d="M1503 703 c15 -4 17 -20 17 -153 0 -133 -2 -149 -17 -153 -10 -3 25
-5 79 -6 l96 -1 11 32 11 32 -23 -22 c-18 -17 -36 -22 -75 -22 l-52 0 0 65 0
65 45 0 c31 0 47 -5 54 -17 8 -15 10 -10 11 21 0 35 -2 38 -13 22 -9 -13 -23
-17 -52 -14 l-40 3 -3 68 -3 67 54 0 c29 0 58 -5 65 -12 9 -9 12 -7 12 10 0
21 -3 22 -97 21 -54 -1 -90 -3 -80 -6z"/>
<path d="M1810 688 c-93 -62 -94 -213 -1 -275 26 -17 48 -23 92 -23 51 0 63 4
94 31 27 24 35 38 34 63 l-1 31 -9 -31 c-20 -70 -110 -105 -178 -69 -38 19
-71 82 -71 135 0 51 33 116 69 134 59 31 136 12 166 -42 l15 -27 -6 30 c-10
48 -28 59 -102 63 -57 3 -72 0 -102 -20z"/>
<path d="M275 170 l0 -60 41 0 c47 0 74 23 74 62 0 35 -30 58 -76 58 l-39 0 0
-60z m80 0 c0 -42 -2 -45 -27 -48 -27 -3 -28 -2 -28 48 0 50 1 51 28 48 25 -3
27 -6 27 -48z"/>
<path d="M445 216 c-33 -24 -17 -106 21 -106 10 0 9 7 -4 29 -21 38 -5 81 32
81 37 0 51 -64 20 -94 -13 -13 -13 -16 -1 -16 21 0 47 34 47 62 0 50 -70 77
-115 44z"/>
<path d="M606 208 c-9 -12 -16 -29 -16 -38 0 -23 29 -60 46 -60 13 0 13 2 -1
16 -20 21 -16 73 8 88 41 26 78 -52 41 -89 -17 -16 -17 -17 1 -14 11 2 26 16
35 32 13 24 13 30 0 55 -13 21 -24 28 -57 30 -33 2 -44 -1 -57 -20z"/>
<path d="M770 170 c0 -47 3 -60 15 -60 12 0 15 13 15 55 0 42 3 55 15 55 17 0
21 -35 5 -45 -14 -9 17 -65 35 -65 19 0 19 9 -1 31 -13 14 -13 21 -3 37 18 29
-4 52 -47 52 l-34 0 0 -60z"/>
<path d="M978 223 c20 -4 22 -10 22 -59 0 -41 4 -54 15 -54 11 0 15 13 15 54
0 49 2 55 23 59 12 2 -5 4 -38 4 -33 0 -50 -2 -37 -4z"/>
<path d="M1115 216 c-33 -24 -17 -106 21 -106 10 0 9 7 -4 29 -13 24 -14 34
-4 55 13 30 56 36 66 10 12 -31 6 -73 -11 -83 -15 -9 -16 -10 -2 -11 23 0 49
32 49 62 0 50 -70 77 -115 44z"/>
<path d="M1330 170 c0 -47 3 -60 15 -60 9 0 15 9 15 25 0 21 5 25 31 25 28 0
31 -3 27 -25 -4 -16 -1 -25 7 -25 9 0 14 20 17 60 2 49 0 60 -12 60 -11 0 -16
-9 -15 -27 0 -23 -5 -29 -27 -31 -25 -3 -28 0 -28 27 0 21 -5 31 -15 31 -12 0
-15 -13 -15 -60z"/>
<path d="M1500 170 c0 -41 4 -60 13 -60 8 0 12 19 12 60 0 41 -4 60 -12 60 -9
0 -13 -19 -13 -60z"/>
<path d="M1587 212 c-21 -23 -22 -66 -1 -86 20 -20 41 -22 25 -2 -7 8 -11 32
-9 53 3 37 4 38 41 38 20 0 37 3 37 8 0 16 -77 7 -93 -11z"/>
<path d="M1740 170 c0 -47 3 -60 15 -60 9 0 15 9 15 25 0 20 5 25 25 25 20 0
25 -5 25 -25 0 -16 6 -25 15 -25 12 0 15 13 15 60 0 47 -3 60 -15 60 -10 0
-15 -10 -15 -30 0 -25 -4 -30 -25 -30 -21 0 -25 5 -25 30 0 20 -5 30 -15 30
-12 0 -15 -13 -15 -60z"/>
<path d="M1905 170 l0 -60 37 0 c20 0 39 4 42 8 3 5 -8 6 -25 4 -24 -4 -29 -1
-29 17 0 14 6 21 20 21 11 0 20 4 20 9 0 5 -9 7 -20 4 -16 -4 -20 0 -20 22 0
24 3 27 25 23 14 -3 25 -1 25 3 0 5 -17 9 -37 9 l-38 0 0 -60z"/>
<path d="M2030 170 c0 -47 3 -60 15 -60 12 0 15 13 15 55 0 42 3 55 15 55 18
0 20 -31 4 -47 -15 -15 14 -63 37 -63 15 0 15 2 0 25 -13 20 -14 28 -4 44 17
27 -5 51 -48 51 l-34 0 0 -60z"/>
<path d="M2230 170 l0 -60 43 1 c29 2 34 3 15 6 -27 4 -28 7 -28 59 0 41 -4
54 -15 54 -12 0 -15 -13 -15 -60z"/>
<path d="M2355 170 l0 -60 37 0 c20 0 39 4 42 8 3 5 -8 6 -25 4 -24 -4 -29 -1
-29 17 0 14 6 21 20 21 11 0 20 4 20 9 0 5 -9 7 -20 4 -16 -4 -20 0 -20 20 0
20 6 27 28 30 20 3 17 4 -13 6 l-40 1 0 -60z"/>
<path d="M2470 225 c0 -2 12 -30 27 -60 l27 -55 28 52 c29 57 32 68 20 68 -5
0 -15 -19 -21 -42 l-13 -42 -14 24 c-7 14 -13 33 -14 43 0 10 -8 17 -20 17
-11 0 -20 -2 -20 -5z"/>
<path d="M2620 170 l0 -60 40 0 c22 0 40 4 40 9 0 4 -11 6 -25 3 -20 -3 -25 0
-25 17 0 14 6 21 20 21 11 0 20 4 20 9 0 5 -9 7 -20 4 -16 -4 -20 0 -20 20 0
20 6 27 28 30 19 3 14 4 -15 6 l-43 1 0 -60z"/>
<path d="M2745 170 l0 -60 43 0 c23 0 42 4 42 8 0 5 -14 6 -31 4 l-31 -5 4 57
c2 45 0 56 -12 56 -12 0 -15 -13 -15 -60z"/>
<path d="M1658 140 c-4 -24 -1 -30 9 -25 8 3 17 5 19 5 2 0 4 11 4 25 0 36
-27 32 -32 -5z"/>
</g>
</svg>
